<svg class="write-page" color-interpolation="linearRGB" width="920px" height="1654px" xmlns="http://www.w3.org/2000/svg" xmlns:xlink="http://www.w3.org/1999/xlink">
  <g class="write-content write-v3" xruling="20" yruling="20" marginLeft="20" papercolor="#FFFFFF" rulecolor="#7F0000FF">
    <g class="ruleline write-std-ruling write-scale-down" fill="none" stroke="#0000FF" stroke-opacity="0.498" stroke-width="1" shape-rendering="crispEdges" vector-effect="non-scaling-stroke">
      <rect class="pagerect" fill="#FFFFFF" stroke="none" x="0" y="0" width="920" height="1654" />
      <path class="yrule_1" d="M0 20 l920 0" />
      <path d="M0 40 l920 0" />
      <path d="M0 60 l920 0" />
      <path d="M0 80 l920 0" />
      <path d="M0 100 l920 0" />
      <path d="M0 120 l920 0" />
      <path d="M0 140 l920 0" />
      <path d="M0 160 l920 0" />
      <path d="M0 180 l920 0" />
      <path d="M0 200 l920 0" />
      <path d="M0 220 l920 0" />
      <path d="M0 240 l920 0" />
      <path d="M0 260 l920 0" />
      <path d="M0 280 l920 0" />
      <path d="M0 300 l920 0" />
      <path d="M0 320 l920 0" />
      <path d="M0 340 l920 0" />
      <path d="M0 360 l920 0" />
      <path d="M0 380 l920 0" />
      <path d="M0 400 l920 0" />
      <path d="M0 420 l920 0" />
      <path d="M0 440 l920 0" />
      <path d="M0 460 l920 0" />
      <path d="M0 480 l920 0" />
      <path d="M0 500 l920 0" />
      <path d="M0 520 l920 0" />
      <path d="M0 540 l920 0" />
      <path d="M0 560 l920 0" />
      <path d="M0 580 l920 0" />
      <path d="M0 600 l920 0" />
      <path d="M0 620 l920 0" />
      <path d="M0 640 l920 0" />
      <path d="M0 660 l920 0" />
      <path d="M0 680 l920 0" />
      <path d="M0 700 l920 0" />
      <path d="M0 720 l920 0" />
      <path d="M0 740 l920 0" />
      <path d="M0 760 l920 0" />
      <path d="M0 780 l920 0" />
      <path d="M0 800 l920 0" />
      <path d="M0 820 l920 0" />
      <path d="M0 840 l920 0" />
      <path d="M0 860 l920 0" />
      <path d="M0 880 l920 0" />
      <path d="M0 900 l920 0" />
      <path d="M0 920 l920 0" />
      <path d="M0 940 l920 0" />
      <path d="M0 960 l920 0" />
      <path d="M0 980 l920 0" />
      <path d="M0 1000 l920 0" />
      <path d="M0 1020 l920 0" />
      <path d="M0 1040 l920 0" />
      <path d="M0 1060 l920 0" />
      <path d="M0 1080 l920 0" />
      <path d="M0 1100 l920 0" />
      <path d="M0 1120 l920 0" />
      <path d="M0 1140 l920 0" />
      <path d="M0 1160 l920 0" />
      <path d="M0 1180 l920 0" />
      <path d="M0 1200 l920 0" />
      <path d="M0 1220 l920 0" />
      <path d="M0 1240 l920 0" />
      <path d="M0 1260 l920 0" />
      <path d="M0 1280 l920 0" />
      <path d="M0 1300 l920 0" />
      <path d="M0 1320 l920 0" />
      <path d="M0 1340 l920 0" />
      <path d="M0 1360 l920 0" />
      <path d="M0 1380 l920 0" />
      <path d="M0 1400 l920 0" />
      <path d="M0 1420 l920 0" />
      <path d="M0 1440 l920 0" />
      <path d="M0 1460 l920 0" />
      <path d="M0 1480 l920 0" />
      <path d="M0 1500 l920 0" />
      <path d="M0 1520 l920 0" />
      <path d="M0 1540 l920 0" />
      <path d="M0 1560 l920 0" />
      <path d="M0 1580 l920 0" />
      <path d="M0 1600 l920 0" />
      <path d="M0 1620 l920 0" />
      <path d="M0 1640 l920 0" />
      <path class="xrule_1" d="M20 0 l0 1654" />
      <path d="M40 0 l0 1654" />
      <path d="M60 0 l0 1654" />
      <path d="M80 0 l0 1654" />
      <path d="M100 0 l0 1654" />
      <path d="M120 0 l0 1654" />
      <path d="M140 0 l0 1654" />
      <path d="M160 0 l0 1654" />
      <path d="M180 0 l0 1654" />
      <path d="M200 0 l0 1654" />
      <path d="M220 0 l0 1654" />
      <path d="M240 0 l0 1654" />
      <path d="M260 0 l0 1654" />
      <path d="M280 0 l0 1654" />
      <path d="M300 0 l0 1654" />
      <path d="M320 0 l0 1654" />
      <path d="M340 0 l0 1654" />
      <path d="M360 0 l0 1654" />
      <path d="M380 0 l0 1654" />
      <path d="M400 0 l0 1654" />
      <path d="M420 0 l0 1654" />
      <path d="M440 0 l0 1654" />
      <path d="M460 0 l0 1654" />
      <path d="M480 0 l0 1654" />
      <path d="M500 0 l0 1654" />
      <path d="M520 0 l0 1654" />
      <path d="M540 0 l0 1654" />
      <path d="M560 0 l0 1654" />
      <path d="M580 0 l0 1654" />
      <path d="M600 0 l0 1654" />
      <path d="M620 0 l0 1654" />
      <path d="M640 0 l0 1654" />
      <path d="M660 0 l0 1654" />
      <path d="M680 0 l0 1654" />
      <path d="M700 0 l0 1654" />
      <path d="M720 0 l0 1654" />
      <path d="M740 0 l0 1654" />
      <path d="M760 0 l0 1654" />
      <path d="M780 0 l0 1654" />
      <path d="M800 0 l0 1654" />
      <path d="M820 0 l0 1654" />
      <path d="M840 0 l0 1654" />
      <path d="M860 0 l0 1654" />
      <path d="M880 0 l0 1654" />
      <path d="M900 0 l0 1654" />
      <path class="leftmargin" stroke="#FF0000" d="M20 0 l0 1654" />
    </g>
    <path class="write-flat-pen" fill="#007F00" stroke-width="1.6" __comx="28.564" __comy="26.43" __timestamp="0x180f652fbd2" d="M26.955 26.991 l0 -1.488 0 -0.688 0 0.112 -0.112 0 0.688 0 0.688 0 -0.112 0 0 -0.112 0 1.02 0.688 0.688 0 0.357 0 0.688 0 0.688 0 0.688 0 0.688 0 0.688 0 0.688 0 0.688 0 0.688 0 -0.112 -0.688 0 0 0.688 0.912 0 0 0.912 -0.112 0 0.688 0 0.688 0 1.488 0 0 -1.6 -1.488 0 -0.688 0 -0.688 0 -1.488 0 0 2.288 2.288 0 0 -0.688 0.688 0 0 -1.488 0 -0.688 0 -0.688 0 -0.688 0 -0.688 0 -0.688 0 -0.688 0 -0.688 0 -0.688 0 -1.02 -0.688 -0.688 0 -0.357 0 -1.488 -1.488 0 -0.688 0 -0.688 0 -1.488 0 0 1.488 0 0.688 0 1.488" />
    <path class="write-flat-pen" fill="#007F00" stroke-width="2.4" __comx="31.221" __comy="31.698" __timestamp="0x180f6531266" d="M27.355 27.391 l0 -1.888 0 0.512 -0.512 0 1.185 0 0.688 -0.688 0.191 0 0.688 0 0.688 0 0.688 0 0.688 0 -0.512 0 0 -0.512 0 0.688 0 0.688 0 0.688 0 0.688 0 0.688 0 0.688 0 0.688 0 0.688 0 0.688 0 1.377 0 0.688 0 0.688 0 0.688 0 -0.512 0.512 0 -0.688 0 -0.688 0 0.512 0 0 0.512 0 -0.688 0 0.512 -0.015 0 0.688 -0.688 0.191 0 0.688 0 0.688 0 0.688 0 -0.512 0 0 0.688 0.688 0 0 -0.015 1.888 1.888 1.697 -1.697 -1.185 -1.185 0 -1.391 -0.688 0 0 -0.688 -1.888 0 -0.688 0 -0.688 0 -0.688 0 -1.185 0 -0.688 0.688 -1.391 0 0 1.888 0 0.688 0 1.888 1.888 0 0.688 0 0.688 0 1.888 0 0 -1.888 0 -0.688 0 -0.688 0 -0.688 0 -1.377 0 -0.688 0 -0.688 0 -0.688 0 -0.688 0 -0.688 0 -0.688 0 -0.688 0 -0.688 0 -0.688 0 -1.888 -1.888 0 -0.688 0 -0.688 0 -0.688 0 -0.688 0 -1.185 0 -0.688 0.688 -0.191 0 -1.888 0 0 1.888 0 1.888" />
    <path class="write-flat-pen" fill="#007F00" stroke-width="2.4" __comx="51.621" __comy="30.729" __timestamp="0x180f653394e" d="M52.821 26.015 l0 -1.888 -2.4 0 0 0.688 0 0.688 0 0.688 0 1.377 0 0.688 0 0.688 0 0.688 0 0.688 0 0.688 0 0.688 0 0.688 0 1.888 2.4 0 0 -1.888 0 -0.688 0 -0.688 0 -0.688 0 -0.688 0 -0.688 0 -0.688 0 -0.688 0 -1.377 0 -0.688 0 -0.688 0 -0.688 -2.4 0 0 1.888" />
    <path class="write-flat-pen" fill="#007F00" stroke-width="2.4" __comx="49.556" __comy="30.729" __timestamp="0x180f6533c3a" d="M52.821 28.433 l-1.888 0 -0.688 0 -0.688 0 -0.688 0 -0.688 0 0.512 0 0 0.512 0 -0.688 0 -0.688 0 -0.688 0 -0.688 0 -0.688 0 -0.688 0 -1.888 -2.4 0 0 1.888 0 0.688 0 0.688 0 0.688 0 0.688 0 0.688 0 0.688 0 1.888 1.888 0 0.688 0 0.688 0 0.688 0 0.688 0 1.888 0" />
    <path class="write-flat-pen" fill="#007F00" stroke-width="2.4" __comx="60.569" __comy="30.729" __timestamp="0x180f6533e3a" d="M59.369 33.939 l0 2.4 2.4 0 0 -2.4" />
    <path class="write-flat-pen" fill="#007F00" stroke-width="2.4" __comx="72.958" __comy="32.238" __timestamp="0x180f6534ac2" d="M73.469 27.056 l-1.888 0 -0.688 0 -1.888 0 0 2.577 0 0.688 0 0.688 0 0.688 0 0.688 0 0.688 0 2.577 1.888 0 -0.512 0 0 0.688 1.888 0 0.688 0 0.688 0 0.688 0 1.888 0 0 -1.377 0.688 0 0 -1.888 0 -1.377 0 -0.688 0 -0.688 0 -0.688 0 -1.888 -2.4 0 0 1.888 0 0.688 0 0.688 0 0.688 0 1.377 0 -0.512 -0.688 0 0 1.377 0.512 0 -0.688 0 -0.688 0 -0.688 0 0.512 0 0 -0.688 -1.888 0 0.512 0 0 -0.177 0 -0.688 0 -0.688 0 -0.688 0 -0.688 0 -0.688 0 -0.177 -0.512 0 0.688 0 1.888 0" />
    <path class="write-flat-pen" fill="#007F00" stroke-width="2.4" __comx="86.723" __comy="32.238" __timestamp="0x180f6534e4b" d="M90.676 23.615 l-2.577 0 -0.688 0 -0.688 0 -1.185 0 -1.391 1.391 0 -0.015 -0.688 0 0 1.391 -0.688 0.688 0 1.185 0 0.688 0 0.688 0 0.688 0 0.688 0 1.888 1.888 0 0.688 0 0.688 0 -0.512 0 0 0.688 1.888 0 -0.512 0 0 -0.512 0 0.688 0 0.688 0 1.377 0 0.688 0 0.688 0 0.688 0 1.888 2.4 0 0 -1.888 0 -0.688 0 -0.688 0 -0.688 0 -1.377 0 -0.688 0 -0.688 0 -1.888 -1.888 0 0.512 0 0 -0.688 -1.888 0 -0.688 0 -0.688 0 0.512 0 0 0.512 0 -0.688 0 -0.688 0 -0.688 0 -0.688 0 -0.191 0.688 -0.688 0 0.015 0.688 0 0 -1.391 -0.015 0.015 0.191 0 0.688 0 0.688 0 2.577 0" />
    <path class="write-flat-pen" fill="#007F00" stroke-width="2.4" __comx="97.048" __comy="32.238" __timestamp="0x180f6534fbf" d="M95.848 35.316 l0 2.4 2.4 0 0 -2.4" />
    <path class="write-flat-pen" fill="#007F00" stroke-width="2.4" __comx="114.255" __comy="32.238" __timestamp="0x180f6535429" d="M109.613 28.768 l1.888 0 1.888 0 0 -0.688 -0.512 0 0.688 0 -0.512 0 0 -0.512 0 0.688 0 0.688 0 0.688 0 0.688 0 0.688 0 0.688 0 0.688 0 -0.512 -0.688 0 0 0.688 -0.688 0 0 0.688 0.512 0 -0.688 0 -0.688 0 -0.688 0 0 2.4 0.688 0 0.688 0 0.688 0 0.688 0 0.688 0 0.688 0 0.688 0 0.688 0 0.191 0 0.688 0.688 2.385 0 0 -2.4 -1.391 0 -0.688 -0.688 -1.185 0 -0.688 0 -0.688 0 -0.688 0 -0.688 0 -0.688 0 -0.688 0 -0.688 0 -0.688 0 0 2.4 0.688 0 0.688 0 0.688 0 1.888 0 0 -0.688 0.688 0 0 -0.688 0.688 0 0 -1.888 0 -0.688 0 -0.688 0 -0.688 0 -0.688 0 -0.688 0 -0.688 0 -0.688 0 -1.888 -1.888 0 -0.688 0 -1.888 0 0 0.688 0.512 0 -1.888 0" />
    <path class="write-flat-pen" fill="#007F00" stroke-width="2.4" __comx="126.988" __comy="32.238" __timestamp="0x180f6535716" d="M130.597 30.144 l0 -3.088 -1.888 0 -0.688 0 -0.688 0 -0.688 0 -0.688 0 -0.688 0 -1.888 0 0 1.888 0 0.688 0 0.688 0 0.688 0 0.688 0 0.688 0 0.688 0 1.185 1.391 1.391 -0.015 0 0 0.688 3.088 0 0 -1.888 0 -0.688 0 -0.688 0 -0.688 0 -0.688 0 -0.688 0 -0.688 0 -0.688 0 -1.888 -2.4 0 0 1.888 0 0.688 0 0.688 0 0.688 0 0.688 0 0.688 0 0.688 0 0.688 0 -0.512 1.712 0 0 -0.688 -1.391 0 0.015 0.015 0 -0.191 0 -0.688 0 -0.688 0 -0.688 0 -0.688 0 -0.688 0 -0.688 0 0.512 -0.512 0 0.688 0 0.688 0 0.688 0 0.688 0 0.688 0 -0.512 0 0 0.688" />
    <path class="write-flat-pen" fill="#007F00" stroke-width="2.4" __comx="145.571" __comy="32.238" __timestamp="0x180f6535c85" d="M139.209 28.08 l1.888 0 0.688 0 0.688 0 -0.512 0 0 -0.512 0 1.377 0 0.688 0 0.688 0 1.377 0 0.688 0 0.688 0 0.688 0 0.688 0 0.688 0 -0.512 -1.377 0 0 0.688 0.512 0 0.512 0 0 1.712 -0.015 0 0.688 -0.688 0.191 0 0.688 0 0.688 0 0.688 0 0.688 0 0.88 0 0.688 0.688 0.688 0 0.688 0.688 1.185 0 -0.512 0 0 0.688 3.088 0 0 -2.4 -0.688 0 0 -0.688 -1.888 0 -0.191 0 -0.688 -0.688 -0.688 0 -0.688 -0.688 -1.874 0 -0.688 0 -0.688 0 -0.688 0 -0.688 0 -1.185 0 -0.688 0.688 -1.391 0 0 3.088 1.888 0 1.888 0 0 -0.688 1.377 0 0 -1.888 0 -0.688 0 -0.688 0 -0.688 0 -0.688 0 -0.688 0 -1.377 0 -0.688 0 -0.688 0 -1.377 0 -1.888 -1.888 0 -0.688 0 -0.688 0 -1.888 0" />
    <path class="write-flat-pen" fill="#007F00" stroke-width="2.4" __comx="163.122" __comy="32.238" __timestamp="0x180f6536170" d="M159.504 28.768 l0 -1.888 0 0.512 -0.512 0 0.688 0 -0.512 0 0 -0.512 0 0.688 0 1.377 0 0.688 0 0.688 0 0.688 0 0.688 0 0.688 0 0.688 0 0.688 0 0.688 0 -0.512 0.512 0 -0.688 0 -0.688 0 0.512 0 0 0.512 0 -0.688 0 0.512 -0.512 0 1.377 0 0.688 0 1.377 0 1.377 0 0.191 0 0.688 0.688 0.688 0 0.688 0.688 0.688 0 0.688 0.688 -0.015 0 0 0.688 3.088 0 0 -2.4 -0.688 0 0 -0.688 -1.391 0 -0.688 -0.688 -0.688 0 -0.688 -0.688 -0.688 0 -0.688 -0.688 -1.185 0 -1.377 0 -1.377 0 -0.688 0 -1.377 0 -1.888 0 0 1.888 0 0.688 0 1.888 1.888 0 0.688 0 0.688 0 1.888 0 0 -1.888 0 -0.688 0 -0.688 0 -0.688 0 -0.688 0 -0.688 0 -0.688 0 -0.688 0 -0.688 0 -1.377 0 -0.688 0 -1.888 -1.888 0 -0.688 0 -1.888 0 0 1.888 0 1.888" />
    <path class="write-flat-pen" fill="#000000" stroke-width="2.4" __comx="109.426" __comy="130.098" __timestamp="0x18113657762" d="M102.079 119.495 l2.927 0 1.23 -1.23 0.732 0 1.23 0 1.23 0 1.23 0 1.23 0 1.23 0 0.03 0 0 0.03 0 1.23 0 1.23 0 1.23 0 1.23 0 0.03 -0.527 0 -1.581 1.581 -0.878 0.878 -0.732 0 -1.513 0 -2.459 1.23 -0.946 0 -1.23 0 0 2.4 2.459 0 1.23 0 1.23 0 2.459 0 1.23 0 1.23 0 1.23 0 0.03 0 0 0.03 0 1.23 0 1.23 0 0.732 -0.527 0.527 -0.732 0 -2.956 0 -1.581 1.581 -0.878 0.878 -1.23 0 -1.23 1.23 -0.732 0 -2.43 0 0 2.4 2.43 0 1.727 0 1.23 -1.23 1.23 0 1.581 -1.581 0.878 -0.878 1.962 0 1.727 0 1.932 -1.932 0 -1.727 0 -1.23 0 -1.23 0 -2.43 -2.43 0 -1.23 0 -1.23 0 -1.23 0 -2.459 0 -1.23 0 -1.23 0 -2.459 0 0 2.4 1.23 0 1.513 0 2.459 -1.23 0.946 0 1.727 0 1.581 -1.581 0.878 -0.878 1.932 0 0 -2.43 0 -1.23 0 -1.23 0 -1.23 0 -1.23 0 -2.43 -2.43 0 -1.23 0 -1.23 0 -1.23 0 -1.23 0 -1.23 0 -1.727 0 -1.23 1.23 -1.932 0" />
    <path class="write-flat-pen" fill="#000000" stroke-width="2.4" __comx="128.484" __comy="130.098" __timestamp="0x18113657a25" d="M126.669 115.866 l0 2.43 0 3.689 0 1.23 0 3.972 1.23 2.459 0 3.405 0 2.459 0 2.459 0 2.459 0 2.459 0 1.23 0 1.23 0 2.43 2.4 0 0 -2.43 0 -1.23 0 -1.23 0 -2.459 0 -2.459 0 -2.459 0 -2.459 0 -3.972 -1.23 -2.459 0 -3.405 0 -1.23 0 -3.689 0 -2.43" />
    <path class="write-flat-pen" fill="#000000" stroke-width="2.4" __comx="165.984" __comy="130.098" __timestamp="0x18113657cf3" d="M162.266 128.102 l0 -1.23 0.03 0 1.23 0 1.23 0 1.23 0 1.23 0 1.23 0 1.23 0 2.43 0 0 -2.4 -2.43 0 -1.23 0 -1.23 0 -1.23 0 -1.23 0 -1.23 0 -1.23 0 -2.43 0 0 3.63" />
    <path class="write-flat-pen" fill="#000000" stroke-width="2.4" __comx="167.213" __comy="130.098" __timestamp="0x18113657ea9" d="M161.095 130.62 l0 3.63 2.43 0 2.459 0 1.23 0 2.459 0 1.23 0 2.43 0 0 -2.4 -2.43 0 -1.23 0 -2.459 0 -1.23 0 -2.459 0 -0.03 0 0 -1.23" />
    <path class="write-flat-pen" fill="#000000" stroke-width="2.4" __comx="195.477" __comy="130.098" __timestamp="0x18113658381" d="M191.774 120.784 l-2.927 0 -1.23 1.23 -1.932 0 0 1.23 -0.03 0 0 2.4 2.459 0 1.23 0 1.727 0 1.23 -1.23 1.932 0 0 -1.23 0.03 0 0.03 0 0 0.03 0 1.23 0 2.459 0 1.23 0 2.176 -0.771 1.542 -1.688 0 0 3.162 -1.016 1.016 -0.985 1.97 -1.688 0 0 1.932 -0.878 0.878 0.756 2.045 15.984 1.23 1.292 -1.196 0 -2.43 -2.4 0 0 2.43 1.292 -1.196 -15.984 -1.23 0.756 2.045 1.581 -1.581 0 -0.527 0.771 0 1.474 -2.948 1.443 -1.443 0 -1.756 0.771 0 1.688 -3.376 0 -2.742 0 -1.23 0 -2.459 0 -1.23 0 -2.43 -2.43 0 -2.43 0 0 1.23 -0.527 0 -1.23 1.23 -0.732 0 -1.23 0 -2.459 0 0 2.4 2.43 0 0 -1.23 0.527 0 1.23 -1.23 1.932 0" />
    <path class="write-flat-pen" fill="#000000" stroke-width="2.4" __comx="214.301" __comy="125.314" __timestamp="0x181136586fb" d="M220.052 123.184 l0 -3.63 -2.43 0 -1.23 0 -1.23 0 -1.23 0 -1.971 0 -1.688 3.376 0 2.742 0 2.459 0 2.459 0 2.459 0 2.459 0 2.459 0 2.459 0 1.727 1.23 1.23 0 1.23 1.23 1.23 0 1.932 2.43 0 1.23 0 1.727 0 1.719 -1.719 1.23 -2.459 1.443 -1.443 0 -1.727 0 -1.962 1.23 -1.23 0 -2.956 0 -1.23 0 -1.23 0 -1.23 0 -2.43 -2.43 0 -1.23 0 -1.23 0 -2.459 0 -2.459 0 -2.459 0 -1.23 0 -1.23 0 -2.43 0 0 1.932 -1.727 1.727 1.697 1.697 2.43 -2.43 0 -0.527 0.03 0 1.23 0 1.23 0 2.459 0 2.459 0 2.459 0 1.23 0 1.23 0 0.03 0 0 0.03 0 1.23 0 1.23 0 1.23 0 1.962 -1.23 1.23 0 2.956 0 0.732 -1.016 1.016 -1.23 2.459 -0.74 0.74 -0.732 0 -1.23 0 -0.03 0 0 -0.527 -1.23 -1.23 0 -1.23 -1.23 -1.23 0 -0.732 0 -2.459 0 -2.459 0 -2.459 0 -2.459 0 -2.459 0 -2.459 0 -2.176 0.771 -1.542 0.488 0 1.23 0 1.23 0 1.23 0 0.03 0 0 1.23" />
    <path class="write-flat-pen" fill="#000000" stroke-width="2.4" __comx="193.033" __comy="164.162" __timestamp="0x181136597cb" d="M186.915 167.446 l2.43 0 1.23 0 1.23 0 1.727 0 1.23 -1.23 1.932 0 0 -1.23 1.23 0 0 -2.43 0 -1.23 0 -0.03 -1.17 0 0 0.03 0 1.23 0 2.459 0 1.23 0 1.23 0 1.23 0 1.23 0 1.23 0 1.23 0 1.23 0 2.43 2.4 0 0 -2.43 0 -1.23 0 -1.23 0 -1.23 0 -1.23 0 -1.23 0 -1.23 0 -1.23 0 -2.459 0 -1.23 0 -2.43 -3.63 0 0 2.43 0 1.23 0 0.03 -1.23 0 0 1.23 -0.527 0 -1.23 1.23 -0.732 0 -1.23 0 -1.23 0 -2.43 0" />
    <path class="write-flat-pen" fill="#000000" stroke-width="2.4" __comx="196.107" __comy="177.311" __timestamp="0x18113659af8" d="M185.685 178.511 l3.659 0 1.23 0 1.23 0 1.23 0 1.23 0 1.23 0 1.23 0 1.23 0 1.23 0 1.23 0 1.23 0 1.23 0 1.23 0 2.43 0 0 -2.4 -2.43 0 -1.23 0 -1.23 0 -1.23 0 -1.23 0 -1.23 0 -1.23 0 -1.23 0 -1.23 0 -1.23 0 -1.23 0 -1.23 0 -1.23 0 -3.659 0" />
    <path class="write-flat-pen" fill="#000000" stroke-width="2.4" __comx="208.402" __comy="152.721" __timestamp="0x1811365ca5b" d="M186.915 153.921 l3.659 0 1.23 0 2.459 0 1.23 0 1.23 0 1.23 0 2.459 0 1.23 0 1.23 0 1.23 0 1.23 0 1.23 0 2.459 0 1.23 0 1.23 0 1.23 0 3.689 0 1.23 0 1.23 0 1.23 0 1.23 0 1.23 0 1.23 0 2.459 0 1.23 0 2.43 0 0 -2.4 -2.43 0 -1.23 0 -2.459 0 -1.23 0 -1.23 0 -1.23 0 -1.23 0 -1.23 0 -1.23 0 -3.689 0 -1.23 0 -1.23 0 -1.23 0 -2.459 0 -1.23 0 -1.23 0 -1.23 0 -1.23 0 -1.23 0 -2.459 0 -1.23 0 -1.23 0 -1.23 0 -2.459 0 -1.23 0 -3.659 0" />
    <path class="write-flat-pen" fill="#000000" stroke-width="2.4" __comx="123.199" __comy="149.65" __timestamp="0x1811365cd9d" d="M98.39 151.462 l2.43 0 1.23 0 2.459 0 2.459 0 3.689 0 2.459 0 4.918 0 3.689 0 3.689 0 4.918 0 2.459 0 2.459 0 2.459 0 3.689 0 1.23 0 1.23 0 1.727 0 2.43 -2.43 -1.697 -1.697 -1.727 1.727 -0.732 0 -1.23 0 -1.23 0 -3.689 0 -2.459 0 -2.459 0 -2.459 0 -4.918 0 -3.689 0 -3.689 0 -4.918 0 -2.459 0 -3.689 0 -2.459 0 -2.459 0 -1.23 0 -2.43 0" />
  </g>
</svg>
