<?xml version="1.0" standalone="no"?>
<!DOCTYPE svg PUBLIC "-//W3C//DTD SVG 20010904//EN"
 "http://www.w3.org/TR/2001/REC-SVG-20010904/DTD/svg10.dtd">
<svg version="1.0" xmlns="http://www.w3.org/2000/svg"
 width="1250.000000pt" height="1280.000000pt" viewBox="0 0 1250.000000 1280.000000"
 preserveAspectRatio="xMidYMid meet">
<metadata>
Created by potrace 1.16, written by Peter Selinger 2001-2019
</metadata>
<g transform="translate(0.000000,1280.000000) scale(0.100000,-0.100000)"
fill="#000000" stroke="none">
<path d="M5800 12739 c-1222 -99 -2323 -511 -3272 -1226 -1182 -890 -2001
-2151 -2327 -3584 -160 -698 -197 -1465 -106 -2174 147 -1142 610 -2223 1334
-3115 333 -410 758 -814 1176 -1117 113 -81 399 -273 409 -273 3 0 24 -13 48
-29 24 -16 68 -42 98 -59 30 -16 107 -58 170 -93 395 -218 939 -427 1430 -549
354 -88 910 -170 1165 -170 128 0 125 2 125 -92 0 -92 20 -143 72 -180 47 -33
159 -33 206 0 52 37 72 88 72 180 l0 79 53 7 c28 3 86 6 127 6 125 0 523 43
695 74 284 52 336 63 506 106 413 105 811 251 1204 445 251 124 339 173 592
331 55 35 104 64 108 64 6 0 92 -49 290 -167 50 -30 97 -58 105 -63 8 -4 96
-57 195 -116 503 -302 945 -565 1160 -692 132 -78 247 -147 255 -152 8 -5 53
-32 100 -61 73 -45 94 -53 146 -57 76 -5 126 16 159 67 31 47 39 98 26 148
-16 60 -40 84 -143 145 -134 80 -377 225 -918 548 -261 156 -574 342 -695 414
-121 73 -250 150 -287 171 -37 22 -68 43 -68 46 0 3 27 27 59 53 641 503 1193
1145 1588 1846 450 798 710 1665 783 2605 28 356 11 879 -41 1274 -187 1429
-895 2779 -1970 3755 -671 609 -1423 1046 -2271 1321 -468 151 -949 244 -1472
285 -151 12 -735 11 -886 -1z m1035 -393 c729 -78 1377 -266 2017 -586 164
-82 183 -92 363 -198 685 -402 1308 -974 1778 -1633 341 -478 605 -1002 792
-1565 258 -781 346 -1660 250 -2498 -177 -1539 -985 -2968 -2218 -3924 -71
-55 -139 -105 -153 -112 -22 -12 -36 -6 -191 87 -258 154 -681 406 -848 505
-82 49 -157 93 -165 98 -33 21 -276 166 -292 175 -10 6 -123 73 -251 150 -258
155 -588 352 -1145 684 l-372 222 2 1237 3 1237 1605 0 1605 0 3 -1653 2
-1652 -44 0 c-68 0 -139 -18 -167 -43 -72 -61 -82 -182 -22 -253 48 -56 54
-58 367 -66 160 -4 309 -5 331 -2 174 26 210 263 51 335 -24 11 -64 19 -99 19
l-57 0 2 1657 3 1658 343 3 342 2 0 -242 c0 -136 5 -259 10 -280 28 -100 138
-154 237 -117 42 15 92 68 103 109 6 21 10 283 10 670 0 714 2 687 -76 746
-32 25 -47 29 -99 29 -50 0 -69 -5 -103 -27 -73 -49 -77 -63 -80 -315 l-3
-223 -345 0 -344 0 0 1759 0 1758 52 6 c127 15 198 130 152 245 -17 45 -43 70
-96 95 -31 15 -71 17 -301 17 -287 0 -312 -4 -364 -53 -41 -38 -57 -85 -51
-148 9 -93 89 -158 196 -159 l52 0 0 -1760 0 -1760 -1610 0 -1610 0 0 2080 0
2080 128 1 c152 0 214 9 249 36 50 36 67 70 71 136 3 54 0 67 -24 104 -41 63
-91 83 -204 83 -84 0 -91 2 -85 18 34 83 32 220 -4 290 -34 66 -96 128 -160
159 -49 24 -68 28 -146 28 -106 0 -157 -19 -230 -86 -107 -98 -138 -254 -80
-391 6 -16 -1 -18 -79 -18 -98 0 -137 -13 -182 -58 -65 -65 -67 -164 -3 -236
47 -54 93 -67 233 -66 67 1 131 1 144 1 l22 -1 0 -2080 0 -2080 -1615 0 -1615
0 0 1243 c0 683 -3 1481 -7 1773 l-6 531 61 5 c117 11 186 79 186 184 0 67
-35 123 -96 153 -42 20 -59 21 -359 21 -285 0 -318 -2 -355 -19 -92 -42 -129
-150 -82 -240 40 -77 92 -100 226 -101 l72 0 0 -1197 c0 -659 3 -1458 7 -1775
l6 -578 -453 0 c-432 0 -456 -1 -494 -20 -63 -31 -91 -80 -91 -159 0 -53 5
-72 23 -99 17 -23 159 -113 516 -327 l493 -294 6 -1207 c4 -664 4 -1210 1
-1213 -3 -3 -22 -6 -42 -7 -113 -2 -131 -5 -163 -27 -54 -36 -79 -82 -79 -144
0 -79 32 -129 107 -167 27 -14 76 -16 333 -16 316 0 344 3 393 48 53 48 72
143 41 205 -36 70 -76 96 -162 102 -31 2 -60 4 -64 4 -8 1 -11 2201 -4 2201 3
0 150 -87 328 -193 178 -107 559 -335 848 -507 289 -172 759 -452 1045 -623
698 -416 708 -422 725 -430 8 -4 71 -42 140 -85 l125 -77 3 -823 c1 -452 -1
-822 -5 -822 -5 -1 -68 -2 -141 -4 -122 -4 -136 -6 -171 -29 -114 -76 -103
-240 21 -308 14 -8 75 -15 158 -19 l135 -5 3 -385 c1 -212 0 -394 -3 -405 -4
-18 -11 -20 -62 -17 -203 8 -557 45 -703 72 -432 80 -749 167 -1100 300 -1414
537 -2580 1624 -3215 2998 -274 590 -436 1184 -511 1862 -21 200 -30 749 -15
976 69 1020 397 1988 966 2844 353 533 855 1061 1370 1443 421 312 880 567
1359 754 503 196 1081 332 1591 373 72 5 148 12 170 14 106 10 799 -3 940 -18z
m-562 -997 c59 -27 68 -116 18 -161 -41 -36 -88 -37 -129 -3 -94 79 -1 215
111 164z m-235 -5132 c14 -17 15 -2247 1 -2247 -5 0 -38 17 -72 39 -58 36
-424 254 -1402 836 -220 131 -499 298 -620 370 -121 73 -421 252 -667 399
l-447 267 -3 157 c-2 86 -1 165 1 175 3 16 87 17 1601 17 1292 0 1600 -2 1608
-13z m462 -2942 c30 -19 134 -80 230 -138 188 -112 1084 -646 1580 -942 1039
-620 1002 -597 988 -611 -19 -19 -234 -141 -388 -221 -731 -377 -1568 -601
-2387 -638 l-123 -6 0 410 0 409 148 3 c139 4 151 6 185 29 95 65 105 210 18
283 -45 38 -90 47 -228 47 l-123 0 0 715 0 716 23 -12 c12 -6 47 -26 77 -44z"/>
</g>
</svg>
