<?xml version="1.0" standalone="no"?>
<!DOCTYPE svg PUBLIC "-//W3C//DTD SVG 20010904//EN"
 "http://www.w3.org/TR/2001/REC-SVG-20010904/DTD/svg10.dtd">
<svg version="1.0" xmlns="http://www.w3.org/2000/svg"
 width="216.000000pt" height="233.000000pt" viewBox="0 0 216.000000 233.000000"
 preserveAspectRatio="xMidYMid meet">
<metadata>
Created by potrace 1.16, written by Peter Selinger 2001-2019
</metadata>
<g transform="translate(0.000000,233.000000) scale(0.100000,-0.100000)"
fill="#000000" stroke="none">
<path d="M894 2219 c-25 -7 -33 -17 -46 -61 -11 -34 -15 -70 -11 -99 3 -30 1
-49 -6 -54 -16 -9 -61 3 -61 17 0 19 -48 75 -84 97 -33 21 -35 21 -70 4 -36
-17 -36 -17 -36 -82 0 -49 5 -75 21 -100 11 -18 18 -40 15 -47 -8 -21 -60 -17
-81 6 -17 18 -47 31 -108 44 -22 5 -34 0 -62 -29 -34 -34 -38 -35 -109 -35
l-74 0 -37 -72 c-53 -104 -88 -203 -104 -295 l-8 -43 159 0 c169 0 174 -2 148
-51 -9 -15 -22 -19 -62 -19 -37 0 -63 -7 -95 -25 -40 -24 -43 -29 -43 -69 0
-41 2 -44 49 -69 29 -16 64 -27 88 -27 38 0 73 -22 73 -46 0 -8 -70 -44 -86
-44 -3 0 -18 -13 -32 -28 -53 -56 -52 -55 -37 -97 12 -38 16 -41 67 -50 44 -9
61 -8 100 7 47 18 47 17 63 -5 l15 -22 -85 -3 c-81 -3 -85 -4 -85 -26 0 -23
32 -58 64 -70 18 -6 18 -17 1 -76 -3 -8 9 -29 25 -47 l29 -31 60 18 c33 10 72
29 88 44 33 31 35 31 57 7 16 -18 16 -21 -9 -64 -30 -54 -35 -136 -9 -161 45
-46 119 -21 167 57 17 26 33 47 36 47 3 0 6 -36 7 -80 1 -89 13 -112 71 -136
54 -23 77 -18 111 25 18 22 32 46 32 54 0 19 46 61 59 53 6 -4 13 -22 16 -40
4 -18 23 -52 43 -75 l37 -42 57 17 c77 22 99 48 108 126 6 59 7 61 19 38 6
-14 33 -39 60 -56 l47 -31 37 18 c37 19 37 20 37 82 0 37 -6 71 -14 82 -28 42
-29 64 -2 76 22 10 29 8 56 -14 17 -15 54 -33 83 -42 l51 -15 34 33 c32 33 33
33 17 70 -21 50 -20 53 22 74 42 20 66 69 42 84 -9 6 0 9 28 9 40 0 42 2 58
44 l17 45 -32 40 c-20 25 -50 47 -76 57 -46 18 -54 36 -34 75 8 13 21 19 46
19 38 0 131 37 137 55 2 5 2 29 -1 51 -4 38 -7 43 -54 65 -27 13 -65 23 -84
23 -36 1 -54 17 -54 49 0 15 14 17 159 17 l159 0 -11 38 c-6 20 -16 40 -22 44
-5 4 -38 8 -72 8 l-63 0 0 30 0 30 65 0 c50 0 65 3 65 14 0 8 -4 17 -9 20 -4
3 -11 19 -14 36 -5 22 -12 30 -29 31 -13 0 -63 1 -113 2 -77 2 -90 5 -93 20
-3 15 7 17 97 17 61 0 101 4 101 10 0 5 -12 32 -27 60 l-28 50 -82 0 c-79 0
-82 1 -107 31 -26 31 -27 31 -73 20 -26 -7 -59 -21 -74 -32 -29 -20 -65 -24
-88 -10 -12 7 -10 15 7 43 13 21 23 58 26 95 l5 61 -35 21 c-44 26 -48 26 -87
-1 -46 -33 -53 -40 -71 -77 -14 -26 -22 -32 -44 -29 -26 3 -27 5 -24 60 5 84
-20 145 -65 157 -19 6 -40 8 -46 5 -19 -7 -77 -97 -77 -119 0 -44 -12 -66 -34
-63 -16 2 -23 14 -32 56 -12 52 -28 85 -59 116 -18 18 -26 18 -71 5z m68 -36
c26 -30 40 -63 47 -112 6 -44 8 -46 41 -49 41 -4 60 16 60 65 0 47 53 113 90
113 21 0 30 -7 38 -27 20 -50 23 -77 13 -126 l-9 -49 34 -14 c50 -21 62 -18
84 25 21 41 76 91 101 91 8 0 24 -7 35 -15 29 -20 24 -92 -11 -151 -14 -23
-25 -50 -25 -58 0 -21 -22 -20 -51 2 -79 60 -241 112 -348 112 -99 0 -241 -37
-316 -82 -16 -10 -44 -18 -62 -18 -29 0 -34 5 -58 55 -35 76 -33 145 6 159 35
12 87 -27 120 -90 23 -43 25 -45 59 -39 54 10 61 20 54 81 -4 32 -2 71 6 99
12 41 15 45 45 45 18 0 39 -8 47 -17z m-459 -290 c23 -22 25 -168 2 -201 -9
-12 -31 -52 -50 -89 -22 -45 -34 -60 -35 -46 0 21 -4 22 -102 25 -89 3 -103 5
-106 21 -3 15 7 17 93 17 53 0 105 4 115 10 10 5 27 26 39 46 l22 37 -25 26
c-20 21 -26 38 -28 86 -3 53 -6 60 -25 63 -15 2 -20 8 -16 19 5 12 15 13 52 8
25 -4 54 -14 64 -22z m712 11 c17 -8 15 -9 -15 -14 l-35 -5 3 -56 c3 -50 1
-57 -17 -62 -46 -12 -56 -118 -16 -165 28 -34 33 -57 9 -48 -9 3 -27 9 -40 12
-28 7 -26 -2 -29 179 l-2 140 -59 0 -59 0 -6 -60 c-3 -33 -6 -57 -7 -54 -1 4
-18 3 -37 -1 l-35 -8 0 59 c0 32 -1 62 -2 67 -2 4 17 13 42 19 50 14 272 12
305 -3z m500 -3 c3 -5 -7 -11 -22 -13 -28 -3 -28 -4 -29 -78 -1 -44 -6 -76
-13 -78 -15 -5 -14 -27 3 -61 8 -15 12 -38 9 -51 -5 -20 -9 -16 -39 31 -31 50
-34 60 -34 140 0 79 2 86 23 97 47 23 92 29 102 13z m-755 -215 l0 -65 -42
-25 c-23 -14 -45 -23 -50 -20 -4 3 -8 39 -8 80 0 82 8 92 73 93 27 1 27 0 27
-63z m-250 -86 c10 -18 6 -19 -87 -22 l-98 -3 0 -55 0 -55 42 -3 42 -3 -22
-36 c-42 -73 -18 -273 33 -273 21 0 24 -4 35 -53 l6 -29 -100 53 c-93 49 -99
55 -105 88 -18 111 6 277 55 372 l19 39 85 0 c74 0 86 -3 95 -20z m934 -178
c16 -78 17 -194 2 -232 -5 -13 -180 -111 -197 -110 -15 0 5 60 22 65 11 4 26
16 34 28 34 53 26 246 -11 274 -13 10 -7 12 37 15 l54 3 2 50 c1 28 2 55 3 60
3 23 39 -77 54 -153z m-1245 6 c-5 -18 -9 -74 -9 -125 l0 -93 -77 41 c-43 23
-82 45 -87 50 -13 12 -46 11 -46 -1 0 -5 5 -10 11 -10 6 0 17 -7 25 -15 8 -8
23 -19 32 -24 36 -20 2 -21 -37 -2 -40 21 -61 57 -46 81 14 23 86 50 133 50
55 0 72 12 72 52 0 21 5 28 19 28 17 0 19 -4 10 -32z m1341 -8 c5 -35 5 -35
65 -40 93 -9 147 -47 130 -92 -7 -18 -57 -48 -81 -48 -15 0 -14 3 6 17 87 60
57 66 -49 10 -49 -26 -90 -47 -92 -47 -2 0 -4 37 -4 83 -1 45 -4 99 -9 120 -6
34 -5 38 11 35 12 -2 20 -15 23 -38z m-1050 -5 l40 -25 0 -85 c0 -83 0 -84
-32 -108 -48 -35 -64 -38 -85 -15 -15 17 -18 37 -18 123 0 139 17 159 95 110z
m414 -9 l39 -34 -44 -51 -44 -52 -42 48 c-24 26 -43 53 -43 58 0 14 62 64 80
64 8 0 33 -15 54 -33z m377 18 c33 -40 28 -225 -7 -251 -13 -10 -23 -9 -48 4
-62 31 -66 39 -66 127 0 71 3 83 21 96 11 8 28 20 37 27 23 17 47 16 63 -3z
m268 -310 c9 -7 28 -15 42 -18 15 -3 42 -22 62 -42 31 -33 33 -39 24 -65 -16
-41 -95 -54 -147 -24 -38 22 -57 18 -77 -15 -9 -16 -25 -30 -35 -30 -23 0 -23
3 5 48 13 20 34 64 46 97 12 33 30 68 39 79 16 18 17 18 21 0 2 -10 11 -24 20
-30z m-1347 19 c8 -10 25 -45 38 -78 13 -33 34 -77 47 -98 l24 -39 -23 4 c-14
2 -29 15 -38 35 -17 37 -40 41 -97 18 -71 -30 -143 -8 -143 43 0 25 48 69 112
102 66 34 62 33 80 13z m654 -85 c23 1 47 3 54 4 6 2 17 -5 23 -14 9 -14 7
-22 -11 -41 -12 -13 -22 -35 -22 -49 0 -16 -9 -32 -24 -42 -23 -14 -27 -14
-56 2 -17 9 -33 28 -36 42 -3 14 -10 33 -15 43 -5 9 -6 29 -3 42 5 20 11 24
27 19 11 -4 39 -6 63 -6z m-409 -157 c13 0 48 -23 78 -51 30 -27 62 -50 71
-50 12 0 14 -8 8 -37 -3 -21 -12 -44 -20 -52 -20 -22 -69 4 -106 55 -36 51
-28 47 -98 49 -34 1 -66 9 -83 19 -18 12 -50 19 -97 21 -68 2 -100 15 -100 40
0 9 39 12 163 10 89 -1 172 -3 184 -4z m1143 -2 c0 -3 -9 -14 -20 -24 -14 -13
-39 -19 -81 -21 -69 -3 -97 -10 -120 -31 -9 -8 -28 -12 -42 -9 -46 8 -96 -12
-120 -49 -24 -38 -75 -72 -87 -59 -4 5 -13 26 -20 47 -11 34 -10 40 6 52 11 7
37 29 58 49 36 34 47 39 101 49 34 6 325 3 325 -4z m-71 -121 c11 -35 10 -42
-5 -59 -15 -16 -26 -19 -59 -13 -59 10 -147 84 -100 84 8 0 28 8 44 18 19 12
43 16 69 14 36 -4 40 -7 51 -44z m-1055 -39 c15 -22 39 -45 51 -51 14 -6 21
-16 18 -24 -3 -8 1 -14 11 -14 26 0 -37 -92 -78 -114 -33 -18 -37 -18 -61 -2
-35 23 -33 75 5 148 30 58 31 58 10 75 -25 21 -26 33 -2 26 9 -2 30 -22 46
-44z m821 18 l-39 -34 27 -48 c19 -33 27 -62 27 -95 0 -43 -3 -49 -29 -60 -27
-11 -33 -9 -65 15 -28 21 -86 103 -86 121 0 3 12 1 27 -2 21 -6 25 -4 20 8 -7
19 78 114 108 121 45 11 47 5 10 -26z m-568 -102 c80 -21 92 -35 64 -73 -28
-39 -84 -74 -113 -70 -21 3 -23 7 -20 62 3 39 0 61 -8 66 -13 8 -5 30 10 30 5
0 35 -7 67 -15z m343 5 c13 -8 11 -12 -8 -26 -21 -14 -23 -22 -17 -70 5 -51 4
-54 -17 -54 -34 0 -120 77 -116 104 3 22 19 28 138 55 3 0 12 -4 20 -9z"/>
<path d="M255 326 c-66 -21 -160 -73 -194 -107 -25 -24 -31 -39 -29 -63 7 -73
149 -87 281 -28 37 17 67 33 67 35 0 3 -34 -6 -75 -19 -42 -13 -98 -24 -125
-24 -41 0 -52 4 -65 24 -15 23 -15 27 0 49 28 43 142 110 208 122 24 5 37 3
37 -3 0 -16 -64 -62 -86 -62 -22 0 -84 -36 -84 -49 0 -46 187 29 213 86 9 21
8 27 -8 39 -23 17 -86 17 -140 0z"/>
<path d="M725 264 c-41 -21 -63 -42 -91 -86 -18 -27 -31 -38 -49 -38 -34 0
-31 15 5 37 31 18 40 43 17 43 -7 0 -45 -16 -84 -35 -39 -19 -76 -35 -82 -35
-24 0 -8 17 37 40 l47 25 -33 3 c-38 4 -95 -25 -100 -52 -8 -42 53 -62 90 -29
17 15 18 15 18 -5 0 -18 6 -22 36 -22 19 0 45 5 57 11 18 10 23 8 35 -10 17
-25 49 -27 99 -6 33 14 38 14 45 0 12 -21 37 -18 83 10 48 30 62 32 35 5 -42
-42 -10 -62 57 -37 43 16 46 16 70 -3 20 -15 30 -17 51 -9 14 6 32 15 38 20 9
8 11 5 7 -10 -7 -28 24 -28 78 0 38 19 42 19 59 4 19 -17 39 -13 83 18 27 19
28 19 25 1 -5 -29 51 -22 98 11 22 15 30 24 19 20 -11 -4 -33 -10 -50 -13
l-30 -5 21 24 c12 13 25 34 29 47 6 20 3 22 -27 22 -40 0 -143 -47 -182 -84
-34 -31 -78 -38 -55 -9 8 10 24 26 37 36 12 10 22 23 22 28 0 19 -29 8 -96
-36 -37 -25 -74 -45 -81 -45 -23 0 -14 17 17 30 16 7 35 18 41 26 22 26 -45
16 -92 -15 -53 -34 -99 -47 -99 -28 0 7 14 21 32 32 32 18 32 19 9 28 -17 8
-34 5 -74 -12 -102 -44 -97 -36 36 50 79 51 93 69 57 69 -36 0 -91 -34 -211
-131 -14 -11 -44 -23 -67 -26 -37 -5 -42 -3 -42 13 0 12 14 27 36 39 41 22 97
82 89 96 -9 13 -36 11 -70 -7z"/>
<path d="M2058 236 c-20 -12 -45 -29 -56 -39 -10 -9 -23 -17 -28 -17 -5 1 7
14 26 30 32 28 33 30 11 30 -34 0 -93 -49 -89 -74 4 -30 32 -31 70 -3 50 37
66 44 46 20 -43 -48 6 -60 73 -17 47 29 47 44 0 19 -40 -20 -40 -2 -1 27 61
45 18 66 -52 24z"/>
<path d="M1767 226 c-69 -29 -106 -52 -114 -71 -11 -29 -113 -42 -113 -14 0
12 35 29 62 29 25 0 68 25 68 39 0 33 -107 1 -150 -44 -50 -53 8 -93 88 -59
36 15 53 18 74 10 22 -8 33 -5 64 19 36 27 37 28 31 6 -3 -14 0 -24 9 -28 16
-6 97 31 116 54 12 14 10 14 -19 0 -18 -10 -37 -17 -43 -17 -14 0 -13 21 4 39
8 9 16 25 18 36 5 29 -26 29 -95 1z"/>
</g>
</svg>
