<?xml version="1.0" standalone="no"?>
<!DOCTYPE svg PUBLIC "-//W3C//DTD SVG 20010904//EN"
 "http://www.w3.org/TR/2001/REC-SVG-20010904/DTD/svg10.dtd">
<svg version="1.0" xmlns="http://www.w3.org/2000/svg"
 width="570.000000pt" height="275.000000pt" viewBox="0 0 570.000000 275.000000"
 preserveAspectRatio="xMidYMid meet">
<metadata>
Created by potrace 1.16, written by Peter Selinger 2001-2019
</metadata>
<g transform="translate(0.000000,275.000000) scale(0.100000,-0.100000)"
fill="#000000" stroke="none">
<path d="M1035 2541 c-10 -17 -1017 -2285 -1022 -2304 -5 -16 16 -17 382 -15
l387 3 309 695 c170 382 314 708 322 724 13 28 13 27 75 -112 34 -77 62 -143
62 -147 0 -4 -115 -266 -255 -581 -140 -316 -255 -576 -255 -579 0 -3 174 -4
387 -3 l387 3 61 137 c33 76 63 138 66 138 3 0 23 -39 45 -87 45 -102 102
-166 160 -182 51 -14 1344 -15 1395 -1 64 18 112 70 159 174 24 53 46 96 49
96 3 0 33 -62 66 -138 l61 -137 387 -3 c213 -1 387 0 387 3 0 3 -115 263 -255
579 -140 315 -255 577 -255 581 0 4 28 70 62 147 62 139 62 140 75 112 8 -16
152 -342 322 -724 l309 -695 386 -3 c212 -1 386 1 386 6 0 5 -231 528 -513
1163 l-513 1154 -389 0 -389 0 -61 -137 c-33 -76 -63 -138 -66 -138 -3 0 -25
43 -49 96 -47 104 -95 156 -159 174 -51 14 -1344 13 -1395 -1 -58 -16 -115
-80 -160 -181 -22 -49 -42 -88 -45 -88 -3 0 -33 62 -66 138 l-61 137 -386 3
c-239 1 -389 -1 -393 -7z m1116 -981 c219 -492 410 -914 425 -938 96 -153 326
-189 473 -73 58 46 85 97 227 419 71 160 131 292 134 292 5 0 54 -109 266
-586 l22 -50 -55 -125 c-30 -68 -62 -132 -71 -143 -43 -47 -31 -46 -727 -46
-696 0 -684 -1 -727 46 -13 16 -938 2084 -938 2099 0 3 129 4 287 3 l287 -3
397 -895z m2354 883 c-18 -48 -418 -943 -420 -941 -1 2 -66 147 -144 323
l-142 320 32 75 c18 41 50 112 70 158 l38 82 287 0 c268 0 286 -1 279 -17z
m-1557 -269 c29 -14 63 -40 77 -58 13 -17 94 -189 180 -381 l155 -350 -155
-350 c-86 -192 -167 -364 -180 -381 -35 -46 -117 -84 -180 -84 -63 0 -145 38
-180 84 -13 17 -94 189 -180 381 l-155 350 155 350 c86 192 167 364 180 381
35 46 117 84 180 84 35 0 68 -8 103 -26z"/>
</g>
</svg>
