<?xml version="1.0" standalone="no"?>
<!DOCTYPE svg PUBLIC "-//W3C//DTD SVG 20010904//EN"
 "http://www.w3.org/TR/2001/REC-SVG-20010904/DTD/svg10.dtd">
<svg version="1.0" xmlns="http://www.w3.org/2000/svg"
 width="1200.000000pt" height="1371.000000pt" viewBox="0 0 1200.000000 1371.000000"
 preserveAspectRatio="xMidYMid meet">
<metadata>
Created by potrace 1.16, written by Peter Selinger 2001-2019
</metadata>
<g transform="translate(0.000000,1371.000000) scale(0.100000,-0.100000)"
fill="#000000" stroke="none">
<path d="M5529 12999 c-863 -21 -1791 -92 -2459 -190 -319 -46 -887 -144
-1190 -205 -663 -132 -1043 -253 -1142 -362 -20 -22 -46 -66 -58 -98 -42 -111
-14 -229 94 -398 43 -67 99 -178 114 -226 7 -19 19 -74 27 -122 30 -173 79
-255 178 -299 45 -20 68 -23 172 -23 142 0 232 12 545 69 129 24 294 51 365
61 136 19 377 25 392 11 14 -15 -48 -58 -191 -135 -130 -71 -137 -73 -188 -68
-29 3 -262 11 -518 17 -618 15 -671 8 -838 -104 -107 -73 -134 -123 -140 -261
-6 -145 34 -396 63 -396 31 0 180 114 226 174 25 32 28 66 19 228 -3 48 -1 90
4 95 28 28 421 -56 433 -94 2 -6 -54 -53 -124 -105 -182 -135 -223 -184 -223
-267 0 -69 57 -116 211 -172 256 -93 781 -353 1169 -579 213 -124 354 -174
395 -140 42 35 0 77 -215 212 -375 235 -486 337 -584 534 -63 126 -73 174 -46
229 41 85 96 108 201 86 59 -13 89 -34 89 -64 0 -10 -29 -49 -65 -86 -36 -37
-65 -76 -65 -85 0 -36 64 -137 137 -216 87 -93 239 -218 368 -303 169 -110
397 -207 487 -207 55 0 86 19 158 97 68 74 89 108 74 122 -5 5 -97 43 -204 86
-284 112 -429 194 -495 280 -31 42 -85 153 -85 178 0 33 27 71 99 142 81 79
112 132 104 178 -6 42 14 68 136 166 124 101 188 171 202 224 7 24 9 77 6 126
-4 72 -11 95 -45 165 -23 44 -67 117 -99 161 -61 83 -115 167 -126 197 -12 34
103 59 638 137 515 76 1084 118 1930 143 368 10 442 10 925 -11 1113 -47 1281
-56 1610 -92 201 -22 1056 -142 1132 -160 l48 -11 -14 -31 c-7 -18 -41 -75
-75 -127 -126 -191 -191 -367 -191 -514 0 -104 14 -153 56 -192 35 -34 196
-120 279 -149 81 -29 86 -38 95 -159 8 -112 14 -126 74 -194 66 -74 71 -106
26 -174 -36 -54 -146 -161 -230 -222 -32 -24 -99 -64 -149 -90 -102 -53 -130
-83 -113 -121 18 -39 86 -78 135 -77 102 2 329 121 445 235 80 78 199 235 231
305 23 50 24 54 9 85 -9 17 -46 65 -82 105 -36 40 -66 80 -66 89 0 24 74 90
109 98 63 14 165 -74 192 -165 23 -77 -32 -212 -141 -346 -92 -113 -241 -228
-513 -395 -49 -30 -93 -61 -97 -70 -13 -24 28 -99 69 -126 43 -29 44 -29 81 7
20 19 41 30 59 30 31 0 47 14 53 45 3 17 11 20 63 20 58 0 59 0 66 32 9 43 26
63 54 63 34 0 55 10 55 26 0 7 11 16 25 19 83 17 78 13 72 50 -9 52 14 65 64
37 22 -13 44 -20 49 -17 6 3 10 35 10 71 l0 65 58 -3 57 -3 -3 34 -2 33 37 -7
c21 -3 48 -9 61 -12 31 -7 28 10 -13 64 -19 25 -35 50 -35 54 0 15 51 10 122
-13 37 -12 71 -19 74 -15 4 3 -6 23 -22 43 -82 103 -77 119 26 80 119 -44 131
-30 45 54 -81 80 -74 88 33 41 37 -16 79 -33 95 -36 47 -12 33 25 -34 91 -48
46 -58 60 -44 62 10 2 29 -6 44 -17 38 -31 108 -61 159 -68 43 -6 44 -6 40 23
-2 23 -17 39 -75 78 -40 27 -71 51 -69 54 3 2 44 -14 93 -36 101 -46 139 -56
148 -42 12 19 -24 59 -101 113 -73 50 -75 52 -46 55 42 4 99 -27 154 -86 82
-87 108 -164 74 -216 -25 -40 -107 -100 -219 -162 -235 -131 -229 -127 -574
-389 -141 -108 -248 -165 -443 -235 -176 -64 -200 -79 -200 -125 0 -47 20 -55
137 -55 l98 0 -3 -99 c-3 -62 1 -107 8 -120 17 -33 90 -81 122 -81 38 0 116
54 129 88 7 17 8 78 4 168 l-7 141 105 56 c58 31 203 114 323 185 481 282 609
343 838 396 95 22 149 55 175 109 27 56 26 77 -4 136 -52 104 -199 263 -377
410 -49 40 -88 76 -88 82 0 23 62 32 222 33 91 1 169 -1 172 -4 3 -3 9 -66 15
-140 6 -83 18 -161 30 -202 21 -67 66 -128 94 -128 28 0 131 190 173 318 14
46 15 61 5 107 -23 103 -132 235 -228 276 -54 23 -175 45 -328 58 -64 6 -312
7 -595 4 -664 -8 -746 3 -860 114 -53 51 -54 54 -36 68 62 47 649 -2 1100 -92
131 -26 209 -37 281 -37 98 -1 102 0 187 42 106 51 116 67 148 227 25 122 45
169 115 264 103 139 149 254 149 371 1 196 -100 259 -709 441 -902 269 -2414
528 -3380 579 -543 28 -1164 35 -1806 19z m1546 -89 c534 -22 988 -69 1694
-176 733 -110 1681 -324 2192 -494 204 -67 277 -100 319 -141 79 -80 59 -220
-64 -439 -82 -144 -112 -208 -135 -285 -11 -38 -25 -76 -30 -83 -9 -15 -128
12 -446 102 -798 224 -2006 446 -2780 510 -723 60 -1952 97 -2595 77 -450 -13
-1093 -63 -1630 -126 -524 -62 -1237 -192 -1732 -316 -294 -74 -480 -137 -657
-224 -111 -54 -158 -72 -166 -65 -18 15 -35 89 -35 149 0 117 -50 248 -140
366 -29 39 -67 99 -84 135 -26 55 -31 77 -31 141 0 64 4 81 25 113 32 47 120
107 207 140 237 89 942 242 1688 366 806 133 1665 216 2595 249 324 12 1532
12 1805 1z m-4353 -1289 c81 -31 345 -384 325 -435 -9 -22 -28 -17 -197 50
-194 76 -249 88 -415 88 -152 -1 -189 -5 -518 -65 -119 -21 -275 -46 -345 -55
-159 -20 -346 -24 -363 -7 -47 47 689 276 1281 398 181 37 198 39 232 26z
m6891 -61 c422 -77 1229 -301 1337 -370 13 -8 13 -11 -2 -27 -25 -24 -157 -20
-338 11 -80 14 -221 39 -315 55 -218 38 -391 51 -692 51 l-242 0 -181 -96
c-100 -52 -184 -93 -186 -91 -2 2 1 21 7 43 37 133 219 386 311 434 37 18 53
21 119 16 42 -4 124 -15 182 -26z m-6767 -416 c95 -38 171 -79 218 -118 l29
-24 -22 -30 c-36 -51 -128 -115 -319 -223 l-43 -25 -217 23 c-281 30 -499 33
-652 9 -174 -28 -234 -26 -300 6 -74 37 -278 85 -428 101 -119 13 -157 26
-136 47 34 34 386 40 827 14 309 -18 374 -13 521 37 105 36 274 120 361 178
33 23 63 41 66 41 4 0 46 -16 95 -36z m6553 -79 c71 -72 102 -91 197 -117 76
-21 103 -22 804 -28 766 -7 754 -6 851 -56 49 -24 126 -90 117 -100 -3 -3 -32
3 -64 13 -48 15 -94 18 -249 18 -172 0 -203 -3 -324 -29 -148 -32 -184 -32
-401 0 -76 11 -184 16 -320 17 -230 0 -341 -14 -487 -64 -119 -40 -168 -45
-239 -24 -157 45 -310 170 -289 235 11 36 137 140 218 180 93 47 99 46 186
-45z m-8508 -302 c30 -80 31 -200 2 -265 -23 -50 -56 -70 -78 -47 -30 33 -54
181 -41 253 7 35 67 116 86 116 5 0 19 -26 31 -57z m10478 -113 c10 -5 24 -23
31 -40 10 -25 10 -38 -5 -82 -20 -62 -65 -138 -82 -138 -36 0 -43 173 -9 238
17 33 34 39 65 22z"/>
<path d="M6860 12739 c-246 -29 -393 -105 -454 -233 -52 -110 23 -250 175
-325 117 -57 226 -75 454 -75 221 0 319 16 427 70 111 55 174 154 118 184 -35
19 -94 -6 -161 -65 -85 -76 -144 -97 -291 -103 -131 -5 -225 11 -318 54 -97
45 -140 100 -140 179 0 95 58 159 180 201 198 67 402 45 525 -57 86 -71 161
-97 205 -69 18 11 16 181 -3 217 l-12 24 -315 4 c-173 2 -349 -1 -390 -6z"/>
<path d="M4863 12729 c-26 -7 -33 -15 -33 -34 0 -29 26 -45 74 -45 25 0 38 -6
46 -19 15 -30 13 -413 -2 -433 -7 -9 -33 -18 -57 -21 -51 -6 -71 -21 -52 -39
9 -10 65 -13 211 -13 146 0 202 3 212 13 18 18 -3 33 -56 39 -25 3 -51 12 -58
21 -9 10 -14 70 -17 195 l-3 180 38 -23 c22 -13 145 -91 274 -174 129 -82 281
-173 337 -203 96 -49 108 -53 173 -53 l70 0 0 265 0 265 59 0 c71 0 114 26 95
57 -16 26 -50 31 -229 31 -179 0 -213 -5 -229 -31 -17 -29 24 -57 84 -57 28 0
52 -6 59 -14 8 -9 11 -60 9 -156 l-3 -142 -230 144 c-126 80 -270 170 -318
201 l-88 57 -167 -1 c-92 0 -182 -5 -199 -10z"/>
<path d="M4115 12679 c-454 -26 -616 -42 -672 -65 -60 -24 -36 -61 46 -71 28
-3 55 -11 61 -18 12 -14 29 -336 20 -380 -5 -26 -12 -32 -54 -42 -58 -14 -76
-28 -76 -59 0 -42 -9 -42 485 -9 559 37 560 37 589 92 18 36 46 142 46 176 0
28 -16 37 -67 37 -27 0 -42 -8 -66 -35 -99 -110 -113 -121 -173 -138 -66 -18
-174 -33 -311 -43 l-93 -7 0 96 c0 109 5 117 79 117 51 0 86 -14 128 -50 43
-38 93 -41 128 -6 22 22 23 29 18 102 -3 44 -12 90 -20 103 -13 21 -21 23 -63
19 -36 -4 -58 -13 -84 -36 -56 -49 -184 -67 -199 -28 -3 8 -9 41 -13 74 l-6
59 160 13 c128 11 172 11 223 1 74 -15 121 -40 137 -75 15 -33 76 -51 122 -35
32 12 32 13 27 58 -3 25 -16 72 -28 104 l-22 57 -91 -1 c-50 -1 -154 -6 -231
-10z"/>
<path d="M8002 12678 c-32 -32 8 -69 84 -79 31 -4 58 -9 60 -12 2 -2 -21 -108
-52 -236 -48 -199 -58 -231 -73 -226 -9 4 -49 9 -88 12 l-73 6 0 -41 c0 -47
-24 -39 233 -82 212 -36 341 -40 356 -12 17 33 -12 60 -67 64 -44 3 -47 5 -50
33 -2 17 15 115 38 219 22 104 40 190 40 192 0 2 37 4 83 6 75 3 82 5 85 24 3
19 -6 25 -60 43 -88 29 -265 70 -378 87 -116 17 -123 17 -138 2z"/>
<path d="M2820 12545 c-206 -36 -332 -64 -347 -76 -16 -14 -17 -41 -1 -57 7
-7 40 -12 79 -12 81 0 73 16 120 -232 37 -201 38 -199 -41 -218 -54 -13 -84
-38 -74 -64 14 -37 37 -36 250 10 256 54 336 79 332 102 -3 13 -17 18 -69 20
-49 2 -71 8 -83 21 -22 24 -99 402 -85 416 5 5 38 19 72 30 64 21 81 41 57 70
-16 20 -49 18 -210 -10z"/>
<path d="M9385 12481 c-27 -16 -102 -71 -165 -121 -218 -172 -355 -273 -395
-291 -32 -15 -55 -17 -112 -12 l-72 6 -7 -27 c-5 -20 -2 -33 12 -47 32 -31
291 -89 401 -89 43 0 54 4 63 21 22 41 9 63 -44 74 l-48 11 50 23 c60 28 111
26 286 -14 121 -27 191 -57 207 -87 14 -26 1 -39 -47 -47 -48 -8 -67 -36 -39
-57 33 -24 142 -54 299 -81 169 -28 200 -24 194 24 -2 23 -10 29 -42 35 -22 5
-46 14 -54 21 -24 19 -65 117 -146 355 -110 319 -103 306 -166 320 -81 19
-120 15 -175 -17z m63 -208 c33 -85 41 -160 17 -169 -14 -6 -131 15 -209 37
l-38 11 23 25 c40 44 153 123 175 123 14 0 25 -9 32 -27z"/>
<path d="M1972 12328 c-54 -26 -82 -32 -215 -44 -177 -16 -264 -33 -402 -81
-291 -100 -430 -248 -385 -408 25 -89 115 -160 241 -190 229 -54 686 36 851
166 80 64 119 144 86 177 -16 16 -103 15 -116 0 -5 -7 -13 -28 -17 -46 -29
-135 -423 -252 -636 -189 -87 26 -139 98 -139 192 0 106 127 204 340 261 64
18 226 30 264 20 14 -3 51 -29 81 -56 60 -54 88 -65 141 -57 59 10 67 23 60
93 -12 117 -45 196 -80 193 -6 0 -39 -14 -74 -31z"/>
<path d="M10349 12185 c-58 -19 -109 -73 -109 -116 0 -88 109 -177 312 -258
119 -47 250 -116 278 -146 l25 -27 -23 -18 c-12 -10 -39 -21 -60 -25 -83 -14
-286 51 -377 121 -20 15 -48 47 -62 71 -14 24 -33 48 -43 53 -28 15 -77 12
-94 -5 -15 -16 -56 -138 -56 -168 0 -22 25 -33 90 -40 30 -3 111 -23 180 -45
203 -66 246 -75 365 -76 131 -1 193 14 241 59 28 27 34 40 34 74 0 111 -60
156 -460 344 -120 56 -149 79 -131 100 18 23 93 31 157 18 115 -22 252 -110
290 -184 34 -65 92 -88 127 -49 41 46 65 183 38 216 -12 15 -25 16 -71 11 -50
-6 -68 -2 -149 29 -142 55 -196 67 -331 72 -94 3 -137 0 -171 -11z"/>
<path d="M7321 11760 c-14 -39 -27 -73 -31 -75 -3 -2 -26 14 -51 35 -53 47
-79 50 -112 10 -39 -46 -52 -96 -51 -195 1 -73 5 -101 26 -150 48 -110 22
-122 -307 -145 -71 -4 -137 -11 -147 -15 -45 -18 -25 -109 37 -169 46 -45 86
-65 180 -92 56 -15 58 -17 35 -26 -14 -6 -110 -14 -215 -18 -104 -5 -198 -12
-208 -15 -33 -13 -2 -70 82 -149 67 -62 139 -94 242 -107 141 -18 149 -20 149
-30 0 -15 -128 -104 -206 -143 -78 -40 -162 -55 -297 -56 -95 0 -117 -10 -117
-52 0 -82 56 -170 134 -210 127 -65 264 -64 435 4 40 16 78 27 84 25 21 -7
-97 -89 -197 -137 -56 -27 -132 -57 -171 -66 -71 -16 -192 -21 -245 -9 -37 8
-70 -10 -70 -37 0 -68 108 -201 198 -245 49 -24 72 -28 162 -31 178 -6 328 46
499 172 127 94 123 93 163 48 18 -21 54 -65 79 -98 50 -65 128 -124 165 -124
15 0 48 23 87 60 36 33 67 60 70 60 3 0 32 -16 64 -35 98 -58 251 -81 358 -54
73 19 164 135 165 212 0 37 -22 44 -84 24 -88 -28 -95 -29 -154 -17 -154 32
-228 112 -274 298 -18 73 -22 117 -23 267 0 165 2 184 22 228 32 69 42 71 278
57 216 -12 240 -9 268 34 10 15 23 23 32 20 19 -8 75 48 75 75 0 11 -15 31
-32 45 l-33 26 46 0 c58 0 72 -11 109 -87 34 -72 52 -78 92 -35 45 46 78 130
78 195 0 71 -18 113 -73 168 -68 67 -153 102 -327 134 -243 45 -389 140 -493
322 -67 117 -86 123 -169 58 -23 -19 -52 -35 -64 -35 -11 0 -65 34 -120 75
-54 41 -104 75 -109 75 -6 0 -21 -32 -34 -70z m191 -218 c14 -36 -4 -208 -27
-251 -9 -18 -52 -66 -95 -108 -43 -41 -83 -87 -88 -101 -6 -15 -13 -58 -15
-95 -6 -85 -22 -104 -132 -157 -109 -53 -199 -73 -301 -67 -45 2 -90 9 -99 15
-16 8 -13 11 16 20 19 6 75 18 124 27 171 31 274 75 302 128 17 34 11 88 -13
108 -10 8 -69 15 -172 20 -152 7 -232 23 -240 47 -4 12 28 17 208 32 69 6 156
17 193 25 68 14 147 51 154 70 2 6 -22 42 -53 80 -31 39 -67 93 -80 120 -23
49 -32 129 -16 139 11 6 60 -46 131 -137 99 -126 116 -118 107 50 l-6 124 45
-31 c26 -18 51 -44 57 -58z m378 -300 c0 -17 -57 -61 -103 -81 -27 -12 -75
-46 -108 -78 -61 -58 -74 -60 -81 -13 -5 38 -35 36 -97 -7 -73 -52 -99 -65
-111 -58 -15 10 13 56 67 110 80 79 83 80 218 80 115 0 122 1 160 28 41 28 55
33 55 19z m515 -42 c82 -28 175 -81 199 -113 19 -26 19 -28 3 -44 -14 -15 -21
-15 -35 -5 -43 31 -71 37 -172 35 -78 0 -131 -7 -205 -27 -134 -35 -189 -63
-193 -98 -4 -35 33 -55 122 -64 36 -4 74 -13 83 -21 16 -13 8 -14 -62 -9 -78
5 -232 39 -248 55 -20 20 161 204 278 283 57 38 63 40 115 34 30 -3 82 -15
115 -26z m-843 -296 c22 -11 43 -14 78 -9 l48 7 4 -39 c12 -92 -29 -233 -68
-233 -16 0 -38 20 -78 73 -35 46 -62 53 -112 32 -36 -15 -39 -15 -51 1 -21 29
-20 85 4 120 17 27 88 64 121 64 13 0 37 -7 54 -16z m-318 -291 c-54 -93 -259
-276 -374 -333 -106 -54 -258 -67 -336 -30 -47 23 -62 46 -36 54 9 3 64 15
121 26 184 37 297 97 465 246 49 43 107 94 130 112 l41 34 9 -31 c7 -24 4 -38
-20 -78z m216 -43 c0 -39 -41 -120 -86 -169 -59 -66 -132 -87 -148 -44 -12 29
72 137 157 205 60 47 77 48 77 8z m154 -55 c23 -24 38 -92 31 -139 -7 -42 -40
-126 -49 -126 -3 0 -13 15 -23 33 -32 61 -20 247 17 247 5 0 16 -7 24 -15z
m-160 -241 c20 -19 20 -72 2 -142 -28 -104 -69 -131 -106 -69 -42 68 -16 177
50 209 42 21 35 21 54 2z m-236 -156 c8 -70 -83 -176 -213 -249 -117 -65 -213
-92 -335 -93 -110 -1 -152 10 -174 47 -15 24 4 34 74 43 66 7 209 53 282 90
29 15 91 51 138 82 180 118 222 133 228 80z m380 -164 c24 -71 -2 -154 -49
-154 -20 0 -109 80 -109 98 0 14 121 102 135 98 6 -1 16 -20 23 -42z"/>
<path d="M4450 11720 c-93 -51 -141 -70 -201 -79 -77 -11 -119 -30 -149 -68
-18 -23 -21 -36 -16 -76 8 -69 89 -303 146 -422 26 -55 50 -114 54 -131 4 -19
-1 -72 -14 -132 -11 -55 -20 -113 -20 -130 0 -32 26 -70 78 -116 60 -52 65
-73 73 -271 4 -112 11 -190 19 -207 28 -59 194 -80 249 -32 12 11 17 208 10
351 -6 120 -14 177 -29 220 -27 76 -26 112 1 61 30 -58 62 -53 130 20 30 31
68 64 86 74 40 21 66 61 67 104 1 30 4 34 27 34 14 0 35 10 46 23 20 22 73
119 73 134 0 4 -40 64 -90 133 -114 160 -169 255 -189 333 -29 107 -60 135
-195 176 -84 26 -112 26 -156 1z m143 -104 c45 -18 95 -78 103 -123 8 -43 53
-138 94 -198 50 -73 63 -106 52 -129 -5 -11 -65 -95 -132 -186 -176 -238 -166
-211 -147 -410 26 -255 30 -342 18 -372 -12 -33 -40 -36 -66 -8 -15 16 -19 47
-25 187 -7 177 -15 207 -64 272 -30 40 -33 80 -11 161 29 108 23 135 -64 308
-85 168 -114 250 -126 350 l-7 62 71 0 c83 0 119 13 179 64 47 39 74 44 125
22z"/>
<path d="M4407 11348 c-45 -35 -40 -138 8 -160 32 -14 92 -2 105 22 14 26 13
123 -2 138 -16 16 -90 15 -111 0z"/>
<path d="M3947 11445 c-50 -19 -91 -47 -155 -109 -75 -72 -94 -112 -95 -208
-2 -87 2 -93 63 -104 69 -12 110 -25 110 -35 0 -5 -55 -36 -122 -68 -214 -101
-204 -121 87 -182 77 -17 174 -32 215 -35 100 -7 130 11 172 103 46 101 39
140 -54 343 -42 91 -84 192 -94 225 -26 87 -47 99 -127 70z m-3 -141 c9 -9 38
-62 65 -117 27 -56 69 -133 95 -172 25 -38 46 -73 46 -78 0 -17 -29 -63 -58
-90 -35 -34 -88 -39 -128 -12 l-25 16 45 43 c46 43 53 60 48 136 -4 71 -35 99
-114 101 -121 3 -141 53 -56 145 44 48 58 53 82 28z"/>
<path d="M3588 11332 c-56 -29 -158 -105 -212 -158 -88 -87 -118 -192 -76
-261 36 -60 139 -120 185 -109 23 6 25 11 25 67 0 60 0 61 54 113 43 41 57 63
69 106 31 111 33 260 3 260 -6 0 -28 -8 -48 -18z"/>
<path d="M5061 10945 c-44 -38 -67 -105 -52 -154 27 -93 82 -116 144 -61 53
46 62 78 42 139 -19 57 -55 101 -84 101 -11 0 -33 -11 -50 -25z"/>
<path d="M4922 10782 c-34 -26 -62 -73 -62 -104 0 -31 -17 -45 -33 -29 -21 21
-53 11 -90 -27 -44 -45 -47 -73 -12 -133 27 -48 32 -88 13 -107 -20 -20 -17
-138 4 -158 21 -22 64 -8 92 30 18 24 22 46 26 167 6 159 11 169 82 169 56 0
82 30 75 85 -9 63 -36 125 -56 125 -9 0 -26 -8 -39 -18z"/>
<path d="M5112 10671 c-34 -35 -46 -82 -36 -147 22 -150 164 -109 164 48 0
114 -63 163 -128 99z"/>
<path d="M4927 10520 c-44 -34 -59 -165 -25 -207 26 -32 107 -2 135 50 21 39
23 137 4 161 -19 23 -82 21 -114 -4z"/>
<path d="M5163 10415 c-67 -29 -84 -126 -33 -190 17 -21 33 -50 36 -64 34
-173 156 -462 209 -497 33 -22 128 -14 157 13 30 27 19 89 -44 234 -85 196
-142 284 -201 313 -20 10 -23 21 -27 99 -6 109 -22 125 -97 92z m176 -403 c42
-65 111 -215 111 -241 0 -30 -25 -26 -48 7 -52 73 -130 261 -115 276 13 12 22
5 52 -42z"/>
<path d="M4985 10283 c-79 -41 -113 -105 -95 -175 6 -22 18 -39 30 -43 34 -11
103 15 141 54 50 50 56 79 29 136 -24 51 -50 57 -105 28z"/>
<path d="M4730 10159 c-27 -28 -31 -37 -28 -78 3 -44 5 -46 35 -49 41 -4 69
11 93 51 23 36 26 77 8 95 -23 23 -74 14 -108 -19z"/>
<path d="M5070 10097 c-31 -24 -50 -62 -50 -98 0 -84 99 -314 152 -352 30 -23
131 -36 142 -19 12 20 -145 423 -182 465 -18 20 -40 21 -62 4z"/>
<path d="M4221 10048 c-77 -42 -296 -197 -356 -252 -82 -77 -56 -102 120 -112
93 -6 103 -4 145 18 29 16 79 64 144 139 109 126 130 162 113 194 -29 54 -80
58 -166 13z m58 -80 c-22 -41 -164 -172 -218 -202 -47 -25 -55 -27 -68 -13
-22 21 -6 45 71 106 70 56 193 131 214 131 10 0 10 -5 1 -22z"/>
<path d="M944 10020 c-48 -19 -126 -184 -127 -270 -2 -126 94 -120 152 10 l20
45 0 -73 c1 -58 4 -74 17 -79 25 -9 46 8 77 66 16 29 31 50 34 47 3 -3 -5 -42
-18 -87 -23 -79 -23 -81 -4 -95 69 -50 144 30 153 163 8 130 -31 208 -130 257
-54 27 -130 34 -174 16z"/>
<path d="M4879 10003 c-10 -12 -15 -61 -17 -193 l-3 -177 23 -7 c13 -3 67 -6
120 -6 110 0 120 8 97 78 -19 56 -107 249 -132 287 -25 39 -65 47 -88 18z"/>
<path d="M4398 9953 c-25 -27 -73 -86 -107 -131 -92 -126 -82 -157 53 -168 84
-7 118 12 179 101 67 96 99 162 95 193 -4 33 -47 51 -123 51 -48 1 -54 -2 -97
-46z"/>
<path d="M4670 9953 c-16 -16 -59 -84 -95 -153 -59 -112 -64 -126 -49 -137 23
-17 94 -27 184 -28 70 0 75 1 87 26 11 23 43 242 43 296 0 22 -4 23 -70 23
-62 0 -73 -3 -100 -27z"/>
<path d="M5744 9755 l-216 -175 -1042 0 -1043 0 -7 -1137 c-6 -1121 -15 -1546
-33 -1591 -8 -20 -10 -15 -21 35 -6 32 -48 175 -92 318 -124 402 -179 646
-216 955 -21 180 -24 467 -5 570 35 192 114 365 224 488 81 89 97 122 97 192
0 124 -57 122 -181 -7 -242 -250 -318 -559 -306 -1237 6 -349 12 -394 117
-930 37 -193 73 -392 79 -442 12 -99 3 -179 -25 -222 -15 -23 -19 -24 -85 -17
-173 17 -261 -35 -289 -172 -16 -77 -3 -115 64 -190 72 -79 92 -86 218 -81 86
3 112 9 159 31 74 36 143 108 204 214 28 47 55 88 61 90 15 5 21 -30 39 -242
29 -339 83 -574 202 -880 280 -723 861 -1440 1504 -1858 182 -118 640 -357
686 -357 83 0 390 161 698 366 403 267 807 636 1149 1049 220 265 507 757 651
1118 154 387 169 613 181 2743 l7 1181 -1012 7 -1012 8 -215 139 c-118 76
-239 154 -269 173 l-54 35 -217 -174z m380 -39 c78 -51 162 -112 187 -135 26
-22 60 -46 75 -52 38 -15 414 -26 1269 -39 380 -6 713 -14 740 -18 l50 -7 8
-125 c10 -150 0 -1937 -13 -2485 -14 -583 -30 -717 -114 -970 -170 -509 -387
-903 -721 -1310 -430 -523 -1038 -1018 -1585 -1288 -185 -92 -201 -93 -350
-21 -208 100 -527 305 -771 494 -454 351 -866 896 -1109 1465 -66 155 -187
532 -214 667 -37 182 -46 335 -53 828 -6 482 13 2730 23 2769 l7 23 231 -6
c127 -3 581 -9 1008 -12 l776 -7 95 86 c101 91 291 237 310 237 6 0 74 -42
151 -94z"/>
<path d="M5793 9360 c-139 -12 -169 -27 -303 -156 -183 -177 -351 -384 -420
-515 l-34 -66 -650 -6 c-688 -7 -786 -11 -786 -32 0 -28 18 -66 1340 -2815
629 -1310 874 -1807 912 -1856 l20 -25 23 33 c65 96 275 491 1351 2533 752
1430 1077 2061 1104 2143 7 23 10 45 6 50 -10 9 -590 9 -1171 -1 l-470 -9 -64
136 c-80 170 -145 270 -241 367 -81 83 -218 178 -290 202 -59 19 -201 27 -327
17z m226 -96 c14 -15 -16 -110 -65 -208 -63 -125 -158 -266 -242 -357 -38 -42
-90 -108 -114 -145 -25 -38 -77 -109 -117 -159 -141 -177 -339 -550 -376 -709
-6 -28 -16 -51 -22 -53 -26 -9 -107 277 -105 372 1 33 19 131 41 220 94 378
142 475 353 713 178 201 325 311 444 332 59 11 192 7 203 -6z m264 -296 c261
-250 375 -386 365 -435 -2 -13 -8 -11 -33 9 -92 77 -209 89 -253 26 -18 -25
-31 -23 -97 12 -50 26 -67 30 -139 30 -140 -1 -250 -62 -360 -201 -73 -93
-257 -385 -372 -593 -76 -135 -98 -185 -158 -348 -10 -27 -22 -48 -26 -48 -14
0 -33 80 -32 140 0 88 16 131 142 385 87 174 138 263 185 325 323 419 481 646
550 788 21 45 41 82 43 82 2 0 85 -78 185 -172z m-90 -465 c51 -21 106 -91
164 -210 37 -76 44 -100 39 -127 -6 -29 -3 -37 19 -54 15 -12 42 -26 62 -33
42 -13 147 -7 168 11 28 23 16 72 -40 175 -98 178 -135 254 -126 259 11 7 38
-24 92 -104 23 -36 64 -92 89 -125 26 -33 74 -103 106 -155 33 -52 81 -124
107 -159 74 -100 62 -112 -49 -46 -76 46 -142 58 -314 59 -131 1 -149 -1 -186
-21 -61 -33 -141 -109 -154 -148 -12 -38 -61 -85 -106 -103 -16 -6 -105 -28
-199 -47 -341 -72 -370 -75 -400 -32 -34 48 -21 82 103 282 166 267 257 399
331 477 117 125 180 146 294 101z m443 -601 c28 -4 72 -21 100 -37 50 -29 148
-115 140 -122 -2 -3 -48 10 -103 28 -95 32 -103 33 -286 35 -103 1 -191 5
-195 9 -11 11 58 64 113 85 52 21 116 21 231 2z m104 -218 c334 -67 453 -159
408 -313 -34 -114 -95 -60 -117 105 -13 87 -24 114 -51 114 -22 0 -26 -12 -35
-98 -11 -97 -30 -74 -30 34 l0 89 -30 0 c-22 0 -35 -8 -52 -34 -13 -19 -23
-46 -24 -60 -1 -15 -6 -3 -12 28 -15 68 -39 87 -68 52 -10 -13 -19 -33 -19
-45 0 -31 -23 -59 -45 -55 -18 4 -28 17 -80 101 -14 23 -28 33 -45 33 -22 0
-26 -6 -35 -49 -20 -92 -59 -88 -108 11 -27 56 -38 69 -60 71 -21 3 -29 -2
-37 -23 -5 -14 -10 -40 -10 -56 0 -39 -24 -85 -48 -91 -43 -12 -122 51 -122
95 0 15 107 72 184 97 108 35 238 33 436 -6z m-710 -105 c14 -33 17 -110 5
-130 -4 -6 -23 -17 -42 -25 -45 -19 -99 -5 -138 37 -38 39 -60 51 -110 59
l-40 7 38 17 c53 23 205 64 243 65 26 1 34 -4 44 -30z m-630 -9 c0 -6 11 -22
25 -35 18 -19 35 -25 68 -25 31 0 66 -11 122 -40 43 -22 87 -40 97 -40 41 0
108 -52 108 -84 0 -16 -74 1 -149 33 -76 34 -182 61 -241 61 -72 0 -100 49
-63 111 17 29 33 38 33 19z m1205 -184 c211 -38 339 -85 378 -138 12 -15 18
-31 14 -34 -3 -4 -44 -10 -90 -14 -99 -9 -149 -29 -200 -78 -51 -50 -61 -89
-92 -364 -15 -128 -31 -237 -35 -242 -18 -18 -190 108 -190 139 0 22 -28 38
-55 31 -66 -17 -86 -86 -37 -131 15 -14 73 -49 130 -77 89 -44 111 -51 165
-52 57 -1 62 1 74 25 7 15 20 107 28 205 9 99 18 198 21 222 l5 42 65 0 c36 0
74 -5 85 -10 49 -27 14 -119 -177 -474 -227 -421 -264 -466 -380 -466 -250 0
-632 297 -775 605 -24 49 -68 234 -69 286 0 3 24 22 53 41 28 19 138 121 242
226 145 147 196 192 215 192 14 0 54 14 90 31 105 51 149 59 305 55 77 -2 181
-11 230 -20z m-1311 -166 c32 -17 72 -30 88 -30 16 0 45 -7 66 -16 37 -15 92
-61 92 -76 0 -13 -88 -9 -123 6 -18 7 -52 30 -76 50 -23 20 -55 39 -70 42 -46
10 -71 23 -71 39 0 23 28 18 94 -15z m3 -157 c64 -38 101 -53 166 -68 24 -5
27 -8 17 -20 -19 -23 -54 -18 -143 19 -45 18 -107 41 -137 50 -71 20 -85 30
-76 51 11 30 93 15 173 -32z m224 -644 c113 -164 270 -314 444 -424 116 -73
201 -105 308 -116 49 -5 92 -11 97 -14 4 -2 10 -28 13 -56 10 -78 43 -105 182
-147 107 -32 148 -72 75 -72 -59 0 -213 -85 -365 -203 -49 -38 -115 -80 -145
-93 -77 -35 -220 -146 -415 -323 -155 -141 -184 -150 -239 -73 -19 26 -94 173
-167 327 -73 154 -141 299 -152 322 -12 24 -18 45 -15 48 3 3 48 14 101 24 53
10 103 23 111 30 27 22 37 113 46 408 10 326 25 453 51 453 4 0 36 -41 70 -91z
m1099 -956 c0 -11 -225 -443 -285 -549 -79 -136 -109 -171 -154 -184 -57 -15
-125 -81 -162 -156 -27 -54 -32 -76 -33 -142 -1 -49 4 -88 13 -104 12 -24 10
-33 -39 -127 -78 -148 -77 -148 -132 -48 -81 144 -278 582 -266 591 1 2 26 18
53 36 89 59 273 210 319 261 25 28 66 61 92 75 56 30 356 230 434 289 30 23
64 47 75 53 22 12 85 16 85 5z"/>
<path d="M6022 7268 c-24 -30 20 -44 231 -73 59 -8 129 -24 154 -35 113 -50
171 5 63 60 -68 35 -153 51 -295 57 -117 5 -142 3 -153 -9z"/>
<path d="M6023 7164 c-20 -9 -15 -53 9 -86 34 -49 99 -72 198 -73 95 0 142 19
170 68 13 24 13 28 -1 42 -8 8 -46 22 -84 29 -76 16 -272 29 -292 20z"/>
<path d="M6168 6384 c-21 -6 -24 -37 -5 -51 6 -5 33 -17 59 -27 38 -14 49 -24
58 -51 13 -40 58 -71 117 -81 60 -9 126 25 164 85 38 59 34 81 -16 105 -33 17
-65 20 -200 22 -88 2 -168 1 -177 -2z"/>
<path d="M5433 5474 c-21 -9 -15 -30 12 -42 42 -19 227 -63 241 -58 21 8 17
42 -10 73 -23 27 -28 28 -128 30 -56 1 -109 0 -115 -3z"/>
<path d="M6134 4897 c-27 -19 -70 -59 -95 -91 -76 -94 -137 -266 -95 -266 8 0
48 48 88 108 76 111 157 202 181 202 24 0 49 36 42 59 -10 33 -63 27 -121 -12z"/>
<path d="M11237 9882 c-22 -24 -34 -123 -41 -334 -7 -188 -14 -218 -50 -218
-37 0 -46 21 -57 127 -26 271 -31 311 -47 343 -21 42 -48 51 -61 18 -13 -35
-31 -241 -31 -354 0 -114 20 -221 50 -269 23 -38 100 -75 155 -75 41 0 100 27
132 62 58 62 83 187 83 419 0 153 -11 232 -39 269 -23 32 -71 38 -94 12z"/>
<path d="M7209 9851 c-24 -17 -71 -57 -104 -90 -75 -77 -70 -85 63 -89 117 -4
175 7 180 32 5 22 -50 136 -76 159 -18 16 -21 15 -63 -12z"/>
<path d="M10792 9817 c-42 -45 -63 -121 -72 -266 -9 -136 -25 -211 -47 -218
-19 -7 -33 31 -59 154 -25 121 -35 143 -65 143 -40 0 -52 -42 -58 -203 -8
-209 -2 -260 40 -303 66 -68 154 -80 229 -30 77 51 98 139 106 456 5 158 3
214 -7 245 -17 48 -37 54 -67 22z"/>
<path d="M11115 9793 c-12 -26 -18 -292 -8 -337 9 -44 26 -56 38 -29 12 27 18
292 8 337 -10 44 -26 56 -38 29z"/>
<path d="M1405 9785 c-60 -31 -104 -123 -105 -221 0 -47 4 -65 18 -77 23 -21
42 -21 68 -2 29 22 44 18 44 -10 0 -42 29 -43 65 -3 l33 35 6 -40 c9 -57 24
-79 49 -75 38 5 61 69 65 183 6 169 -22 212 -143 221 -52 4 -78 1 -100 -11z"/>
<path d="M1810 9680 c-19 -5 -44 -20 -56 -34 -46 -53 -75 -299 -38 -313 23 -9
44 23 44 66 l1 36 21 -43 c34 -71 69 -76 109 -16 l19 29 0 -26 c0 -62 66 -63
95 -3 36 76 1 264 -56 294 -27 15 -99 20 -139 10z"/>
<path d="M8641 9559 c-26 -76 -5 -128 98 -234 141 -146 211 -278 270 -510 34
-136 44 -238 38 -389 -9 -248 -66 -457 -287 -1046 -193 -514 -224 -635 -224
-865 -1 -216 37 -339 131 -433 120 -120 359 -124 448 -8 100 131 58 327 -76
355 -19 4 -54 3 -79 -1 -121 -22 -116 -22 -134 3 -52 75 25 471 165 846 123
331 182 539 230 813 19 112 21 149 16 355 -9 376 -28 507 -95 664 -104 241
-330 481 -454 481 -32 0 -37 -4 -47 -31z"/>
<path d="M2140 9532 c-45 -22 -71 -75 -77 -155 -6 -79 8 -117 42 -117 22 0 25
4 25 33 l0 32 36 -37 c19 -21 39 -38 44 -38 5 0 18 12 29 26 l21 27 0 -37 c0
-35 2 -37 27 -34 21 2 32 14 51 52 34 68 39 151 13 194 -44 68 -136 92 -211
54z"/>
<path d="M736 9497 c-59 -88 -138 -1143 -94 -1244 26 -60 63 -105 102 -125 55
-29 186 -37 238 -15 72 30 97 125 139 535 33 321 45 670 24 691 -18 18 -69 23
-87 9 -22 -17 -38 -128 -78 -531 -42 -425 -60 -507 -118 -515 -15 -2 -26 6
-39 30 -16 29 -18 59 -17 258 1 190 6 262 32 469 18 134 32 282 32 328 0 76
-2 86 -25 108 -32 33 -88 34 -109 2z"/>
<path d="M10342 9478 c-6 -18 -16 -80 -22 -138 -12 -119 -27 -177 -42 -162 -5
5 -17 56 -28 114 -10 58 -23 116 -30 128 -15 27 -42 22 -51 -10 -12 -43 -9
-282 4 -319 17 -48 54 -73 111 -73 61 -1 93 22 130 95 62 124 39 386 -36 395
-22 3 -28 -2 -36 -30z"/>
<path d="M2453 9413 c-52 -10 -88 -86 -81 -168 2 -33 7 -41 26 -43 17 -3 25 2
29 16 5 20 5 20 25 0 14 -14 27 -18 44 -14 20 5 27 1 41 -29 9 -19 20 -35 25
-35 35 0 64 168 38 230 -17 40 -74 57 -147 43z"/>
<path d="M925 9338 c-33 -113 -67 -403 -81 -699 -6 -145 -1 -209 17 -209 16 0
30 50 45 165 9 61 24 175 35 255 41 294 47 540 14 540 -8 0 -21 -22 -30 -52z"/>
<path d="M10022 9347 c-15 -17 -34 -106 -26 -118 9 -14 -5 -99 -16 -99 -5 0
-14 18 -20 40 -5 22 -15 57 -20 79 -11 44 -35 70 -51 54 -19 -19 -30 -132 -20
-206 13 -92 32 -112 106 -112 103 0 134 48 134 208 1 117 -15 167 -52 167 -14
0 -29 -6 -35 -13z"/>
<path d="M2731 9322 c-19 -10 -43 -34 -53 -53 -18 -33 -24 -102 -12 -133 9
-22 47 -20 69 4 25 28 35 25 35 -10 0 -46 27 -51 61 -11 l27 33 4 -28 c2 -23
9 -30 30 -32 22 -3 28 2 38 32 24 75 -10 170 -73 199 -45 22 -84 21 -126 -1z"/>
<path d="M1266 9267 c-26 -26 -39 -78 -61 -232 -30 -216 -48 -438 -49 -610 -1
-204 1 -211 77 -266 37 -27 48 -30 91 -26 88 8 135 84 175 284 32 155 63 455
65 615 1 128 -1 149 -16 165 -16 15 -20 16 -33 2 -30 -30 -62 -201 -109 -589
-25 -198 -47 -260 -93 -260 -7 0 -23 10 -34 21 -18 18 -20 29 -15 68 3 25 19
183 36 351 17 168 35 338 40 379 9 62 8 78 -5 98 -20 29 -40 29 -69 0z"/>
<path d="M8662 9272 c-19 -12 -34 -128 -26 -197 11 -105 48 -142 97 -97 14 12
37 17 86 17 l66 0 3 33 c8 86 -170 279 -226 244z"/>
<path d="M1385 9213 c-3 -10 -11 -74 -16 -143 -5 -69 -16 -179 -25 -245 -34
-265 -36 -363 -7 -372 6 -2 16 11 22 29 28 87 79 586 73 716 -2 24 -7 32 -21
32 -10 0 -22 -8 -26 -17z"/>
<path d="M3307 9111 c-69 -72 -78 -86 -75 -114 3 -28 11 -36 57 -59 99 -50
103 -44 99 136 l-3 119 -78 -82z"/>
<path d="M9436 9154 c-12 -11 -16 -36 -16 -95 0 -59 -3 -79 -13 -79 -23 0 -56
44 -64 84 -5 22 -17 44 -26 50 -15 9 -23 6 -43 -17 -13 -15 -24 -35 -24 -44 0
-39 27 -100 61 -135 31 -33 42 -38 80 -38 55 0 86 20 110 74 31 68 19 184 -21
206 -24 13 -26 13 -44 -6z"/>
<path d="M1632 9137 c-30 -35 -62 -364 -65 -653 -2 -161 -1 -174 19 -201 34
-45 140 -67 193 -40 59 30 74 83 116 412 13 105 27 245 31 313 6 110 5 124
-11 142 -10 11 -23 20 -30 20 -24 0 -58 -51 -76 -112 -16 -57 -18 -59 -18 -27
-1 58 -12 99 -26 99 -23 0 -32 -39 -71 -313 -9 -64 -20 -120 -25 -123 -12 -7
-12 14 7 248 8 111 13 212 9 225 -6 25 -36 31 -53 10z"/>
<path d="M1993 9047 c-16 -34 -31 -115 -52 -287 -40 -316 -39 -330 32 -404 49
-52 79 -62 135 -46 86 23 135 95 153 228 6 42 13 88 16 102 4 24 5 24 19 6 8
-11 14 -38 14 -59 0 -59 19 -113 56 -156 59 -69 131 -88 191 -52 42 26 53 81
60 301 5 171 -2 240 -24 247 -21 7 -33 -35 -57 -197 -25 -170 -45 -225 -72
-198 -13 13 -22 64 -44 271 -21 202 -70 220 -104 39 l-12 -67 -7 102 c-7 112
-17 143 -47 143 -31 0 -49 -39 -75 -166 l-24 -119 4 110 c9 237 -35 256 -75
32 -24 -136 -32 -245 -22 -282 7 -24 14 -30 35 -28 35 2 36 -25 4 -55 -29 -28
-54 -28 -62 -1 -4 11 -1 125 6 253 13 250 9 306 -20 306 -10 0 -23 -10 -28
-23z"/>
<path d="M11271 8983 c-31 -25 -41 -107 -41 -345 0 -274 -19 -394 -65 -412 -9
-3 -32 -6 -51 -6 -27 0 -35 4 -38 23 -3 12 -12 160 -20 329 -9 175 -21 323
-29 345 -10 33 -16 38 -42 38 -22 0 -33 -7 -42 -25 -24 -50 -36 -218 -37 -485
-1 -307 4 -336 74 -399 104 -94 246 -62 328 74 69 116 86 224 87 545 0 230 -2
253 -20 290 -16 32 -26 41 -51 43 -18 2 -39 -4 -53 -15z"/>
<path d="M10798 8940 c-35 -27 -48 -91 -48 -243 0 -206 -27 -357 -64 -357 -9
0 -23 12 -33 26 -14 22 -19 71 -29 273 -13 278 -25 333 -63 287 -32 -38 -59
-223 -68 -458 -5 -155 -4 -183 12 -224 51 -133 182 -189 260 -111 27 27 34 45
48 122 31 173 50 371 51 535 1 159 0 165 -20 168 -11 2 -32 -6 -46 -18z"/>
<path d="M2462 8923 c-4 -10 -7 -85 -7 -168 0 -123 3 -150 14 -150 8 0 19 14
24 30 11 38 15 241 4 278 -8 31 -24 35 -35 10z"/>
<path d="M2675 8900 c-13 -21 -27 -219 -22 -313 6 -108 18 -137 66 -157 66
-27 119 15 146 113 20 76 19 288 -3 309 -18 18 -26 3 -58 -102 -14 -47 -32
-105 -41 -129 -15 -43 -17 -44 -25 -20 -5 13 -12 78 -15 144 -3 66 -10 130
-14 143 -9 23 -24 29 -34 12z"/>
<path d="M10381 8881 c-23 -23 -37 -87 -51 -241 -11 -120 -27 -197 -38 -186
-3 4 -9 93 -13 199 -4 106 -10 200 -14 210 -4 9 -16 17 -27 17 -71 0 -89 -63
-95 -327 -3 -112 -2 -218 1 -236 9 -46 57 -117 100 -145 47 -32 85 -23 130 30
49 56 64 109 86 298 25 207 27 362 4 384 -21 22 -60 20 -83 -3z"/>
<path d="M11113 8853 c-4 -15 -8 -141 -8 -279 0 -202 3 -254 14 -268 21 -25
38 -3 51 64 15 77 13 393 -2 455 -15 59 -43 73 -55 28z"/>
<path d="M9884 8836 c-30 -46 -46 -189 -41 -356 2 -85 10 -172 16 -192 22 -70
127 -103 184 -58 43 34 66 194 67 461 0 118 -3 149 -15 159 -20 16 -43 6 -55
-25 -5 -13 -16 -78 -24 -142 -8 -65 -20 -131 -26 -148 -11 -27 -13 -28 -20
-10 -4 11 -11 83 -15 160 -4 77 -11 148 -16 158 -13 24 -36 21 -55 -7z"/>
<path d="M9722 8813 c-5 -10 -13 -67 -16 -128 -4 -60 -9 -123 -12 -138 -12
-57 -26 -9 -34 112 -6 95 -11 126 -25 141 -24 27 -61 26 -77 -2 -16 -31 -16
-367 1 -427 15 -51 69 -111 100 -111 32 0 109 76 121 119 13 46 13 392 0 425
-11 30 -45 35 -58 9z"/>
<path d="M10664 8799 c-10 -17 -20 -209 -14 -292 5 -80 13 -98 33 -78 13 13
24 288 12 347 -6 34 -18 43 -31 23z"/>
<path d="M9430 8773 c-7 -16 -16 -77 -21 -137 -4 -59 -11 -111 -14 -114 -10
-11 -24 21 -30 68 -11 88 -29 145 -48 148 -29 6 -38 -43 -37 -192 0 -211 18
-256 99 -256 38 0 75 28 99 75 28 56 45 372 22 416 -16 29 -54 24 -70 -8z"/>
<path d="M8877 8776 c-9 -9 -19 -42 -23 -73 -4 -32 -11 -69 -16 -82 -12 -32
-32 -14 -48 45 -19 66 -44 94 -86 94 -49 0 -57 -28 -50 -160 11 -182 18 -230
34 -247 23 -23 109 -12 216 28 l89 34 -7 159 c-3 92 -11 170 -19 185 -15 31
-66 41 -90 17z"/>
<path d="M3203 8740 c-25 -10 -43 -39 -36 -58 8 -20 59 -42 101 -42 46 0 106
36 110 67 2 16 -5 23 -29 32 -37 13 -115 14 -146 1z"/>
<path d="M3200 8603 c-28 -10 -60 -46 -60 -68 0 -39 35 -60 98 -59 77 1 122
25 122 64 0 42 -40 70 -99 69 -25 0 -53 -3 -61 -6z"/>
<path d="M3181 8323 l-43 -4 4 -172 c3 -95 8 -180 13 -189 4 -10 18 -18 31
-18 31 0 40 21 47 110 6 79 14 110 27 110 5 0 11 -21 15 -47 3 -27 8 -67 11
-90 5 -45 45 -103 69 -103 23 0 35 68 35 190 0 117 -10 184 -29 203 -12 12
-109 17 -180 10z"/>
<path d="M8860 8302 c-38 -30 -51 -235 -18 -295 18 -34 60 -18 88 33 19 36 25
63 28 137 6 125 1 143 -42 143 -19 0 -44 -8 -56 -18z"/>
<path d="M2743 8293 c-29 -6 -30 -16 -25 -165 6 -151 -12 -178 -21 -33 -7 107
-25 160 -57 170 -34 11 -53 -16 -58 -82 -5 -69 19 -289 54 -497 47 -274 92
-415 150 -469 33 -31 81 -36 91 -10 4 9 -1 114 -11 232 -9 119 -21 348 -26
510 -5 161 -12 303 -16 315 -11 34 -26 40 -81 29z"/>
<path d="M8671 8269 c-28 -31 -35 -93 -22 -203 6 -52 11 -152 11 -221 l0 -128
43 7 c65 10 133 35 152 56 22 24 29 89 13 120 -7 13 -24 27 -38 30 l-25 6 -5
163 c-4 146 -7 164 -24 177 -30 21 -82 18 -105 -7z"/>
<path d="M2467 8224 c-10 -10 -9 -214 2 -374 27 -394 18 -515 -14 -186 -26
268 -46 437 -55 461 -12 31 -59 67 -84 63 -20 -3 -21 -9 -19 -98 2 -98 79
-659 114 -832 42 -209 142 -419 255 -536 41 -43 77 -72 85 -70 28 10 14 133
-39 348 -68 271 -84 363 -151 830 -45 316 -59 395 -72 398 -8 1 -18 0 -22 -4z"/>
<path d="M2151 8129 c-15 -43 -13 -158 4 -314 20 -171 32 -624 17 -610 -7 6
-24 155 -41 345 -48 535 -61 600 -121 600 -35 0 -42 -41 -31 -169 6 -64 15
-226 21 -361 20 -469 31 -635 46 -710 18 -88 93 -274 158 -394 83 -151 226
-326 267 -326 16 0 19 8 19 54 0 30 -7 88 -15 128 -29 138 -45 254 -60 453
-17 221 -15 208 -56 425 -15 85 -47 280 -69 434 -23 153 -48 308 -56 344 -30
129 -60 166 -83 101z"/>
<path d="M1813 8098 c-12 -6 -24 -20 -27 -32 -4 -11 -10 -282 -13 -601 -8
-645 -16 -645 -33 -1 -11 403 -18 494 -40 535 -16 31 -40 51 -60 51 -36 0 -43
-64 -37 -335 17 -687 123 -1329 262 -1580 41 -75 143 -175 178 -175 46 0 45
44 -8 385 -60 396 -100 902 -113 1446 -6 219 -10 290 -21 303 -15 18 -55 20
-88 4z"/>
<path d="M10015 8027 c-25 -39 -34 -80 -50 -241 -18 -168 -46 -323 -67 -376
-13 -32 -15 -9 -21 261 -7 294 -13 349 -41 349 -28 0 -38 -53 -71 -375 -56
-557 -131 -877 -282 -1215 -84 -186 -105 -248 -97 -282 14 -66 99 -12 230 146
149 180 240 354 314 600 117 388 209 990 171 1126 -10 36 -64 41 -86 7z"/>
<path d="M9462 8013 c-16 -43 -20 -68 -32 -203 -28 -322 -73 -510 -204 -863
-110 -297 -114 -317 -57 -317 33 0 95 45 179 131 162 164 283 425 347 749 22
108 33 476 16 508 -16 29 -45 28 -59 -3 -6 -13 -16 -75 -22 -137 -32 -333 -50
-441 -97 -573 -27 -75 -91 -207 -117 -240 -15 -19 -15 -19 -16 12 0 62 50 301
100 473 100 341 111 420 65 465 -35 36 -89 35 -103 -2z"/>
<path d="M1435 7984 c-26 -40 -37 -214 -30 -494 15 -623 27 -921 46 -1118 22
-226 22 -295 1 -202 -47 206 -81 664 -92 1245 -5 286 -13 485 -20 507 -12 42
-43 64 -107 74 -56 9 -69 -8 -77 -103 -12 -145 14 -778 49 -1168 34 -378 58
-527 111 -709 107 -365 240 -642 298 -623 44 14 45 106 11 658 -13 222 -36
609 -50 859 -40 736 -65 1066 -81 1092 -11 17 -42 7 -59 -18z"/>
<path d="M9342 7963 c-13 -46 -41 -206 -43 -248 -1 -16 -5 21 -10 82 -8 113
-20 158 -42 150 -22 -7 -38 -94 -63 -357 -38 -394 -40 -448 -20 -456 57 -22
160 196 201 422 18 103 31 353 21 407 -9 48 -30 47 -44 0z"/>
<path d="M10205 7967 c-15 -37 -27 -102 -80 -462 -70 -477 -97 -693 -105 -850
-10 -184 -31 -275 -135 -595 -76 -233 -83 -267 -61 -276 22 -8 98 38 138 85
68 79 242 430 295 594 14 45 37 105 50 134 66 140 144 752 147 1153 1 222 -3
250 -39 250 -50 0 -62 -59 -95 -470 -36 -438 -83 -747 -132 -877 -30 -78 -33
-50 -13 105 29 223 35 283 45 467 6 99 20 273 31 386 11 113 19 246 17 295 -3
84 -4 89 -26 92 -17 3 -26 -4 -37 -31z"/>
<path d="M11238 7940 c-59 -39 -98 -85 -98 -114 0 -13 7 -67 15 -122 24 -161
16 -519 -21 -959 -27 -320 -65 -525 -154 -838 -53 -185 -71 -232 -82 -215 -11
17 -2 95 29 243 53 259 64 336 74 500 5 94 16 240 24 325 22 230 38 681 32
880 -6 232 -25 280 -106 280 -49 0 -50 -3 -61 -595 -10 -534 -21 -700 -80
-1295 -77 -757 -104 -942 -201 -1341 -34 -140 -64 -284 -67 -321 -5 -66 -4
-68 19 -68 15 0 40 18 72 52 94 100 216 395 371 898 246 796 352 1359 386
2045 18 359 11 574 -21 641 -21 43 -70 44 -131 4z"/>
<path d="M10741 7928 c-12 -4 -25 -18 -30 -30 -5 -13 -11 -151 -15 -308 -13
-552 -46 -1207 -66 -1293 -5 -22 -15 -47 -24 -55 -13 -14 -16 -12 -22 12 -3
15 -1 112 5 214 24 389 38 1159 24 1365 -5 84 -8 97 -24 97 -12 0 -21 -12 -29
-37 -14 -51 -107 -832 -120 -1013 -6 -80 -15 -395 -20 -700 -11 -650 -17 -833
-31 -878 -24 -76 21 -109 73 -54 66 69 169 295 216 477 53 201 130 730 151
1030 19 261 33 709 29 921 -3 188 -5 214 -21 232 -21 23 -65 32 -96 20z"/>
<path d="M623 7910 c-14 -6 -25 -22 -30 -47 -14 -64 -10 -982 5 -1123 34 -327
104 -803 158 -1065 93 -451 238 -957 324 -1125 49 -95 109 -128 144 -78 26 36
20 233 -19 654 -19 208 -40 426 -45 484 -16 172 -38 558 -70 1215 -42 867 -53
1018 -81 1051 -18 22 -72 17 -97 -9 -31 -33 -42 -108 -42 -291 0 -167 32
-1064 51 -1431 16 -326 14 -425 -11 -425 -14 0 -47 122 -64 235 -43 289 -64
628 -76 1227 -11 561 -19 682 -47 710 -22 22 -70 31 -100 18z"/>
<path d="M3315 7685 c-79 -23 -85 -30 -85 -93 0 -58 27 -179 49 -219 6 -13 20
-27 31 -33 45 -24 83 87 84 249 1 108 -7 118 -79 96z"/>
<path d="M8674 7614 c-20 -47 -30 -220 -15 -257 6 -16 17 -27 24 -25 20 7 88
178 95 237 6 61 -9 81 -60 81 -24 0 -32 -7 -44 -36z"/>
<path d="M2950 5969 c-138 -12 -185 -35 -363 -185 l-138 -115 -68 46 c-89 61
-169 85 -281 85 -131 0 -200 -30 -247 -108 -26 -42 -30 -84 -9 -102 14 -11 56
-10 166 6 31 4 29 1 -30 -31 -35 -19 -79 -50 -98 -67 -57 -55 -89 -136 -61
-153 6 -4 100 -11 209 -15 230 -10 252 -17 319 -101 88 -110 89 -208 4 -354
-33 -57 -47 -91 -47 -120 l-1 -40 75 1 c159 1 279 105 325 281 20 76 19 225
-2 335 -17 86 -16 90 2 125 19 34 180 190 350 337 121 105 175 159 175 173 0
15 -108 16 -280 2z"/>
<path d="M8623 5928 c-6 -7 -14 -47 -18 -88 -8 -84 -34 -162 -66 -196 -28 -30
-40 -30 -69 1 -29 31 -75 34 -90 6 -17 -32 -12 -141 9 -187 20 -44 54 -74 84
-74 16 0 17 -6 12 -43 -5 -34 -3 -47 15 -70 26 -33 71 -36 100 -7 20 20 18 37
-10 90 -13 24 1 35 73 53 95 25 101 34 93 147 -3 52 -9 120 -12 150 l-6 55 37
-35 c21 -19 129 -135 241 -258 l203 -222 3 -208 c3 -203 4 -208 30 -258 51
-96 219 -219 291 -212 31 3 32 4 35 57 2 41 -6 84 -34 173 -31 101 -36 129
-31 180 6 71 48 161 89 191 64 48 195 27 310 -49 83 -54 104 -56 124 -9 28 67
17 98 -77 222 -49 64 -38 76 64 67 l84 -7 7 27 c12 47 -15 89 -80 123 -32 17
-83 38 -113 47 -68 20 -196 20 -276 1 -123 -30 -136 -25 -390 145 -238 159
-240 160 -406 160 -123 0 -138 2 -154 20 -20 23 -57 26 -72 8z"/>
<path d="M3238 5798 c-7 -13 -13 -54 -13 -93 0 -58 5 -78 27 -116 29 -50 81
-94 121 -104 20 -5 29 -1 43 20 15 23 16 36 6 115 -6 48 -20 106 -30 127 -36
68 -127 98 -154 51z"/>
<path d="M3006 5424 c-13 -12 -16 -39 -16 -123 l0 -107 228 -54 c164 -39 248
-54 302 -54 l75 -1 0 72 c0 40 -5 77 -11 83 -6 6 -42 18 -79 25 -37 8 -79 23
-92 32 -82 59 -126 66 -171 28 -38 -32 -50 -32 -58 3 -10 51 -24 72 -56 92
-39 24 -101 26 -122 4z"/>
<path d="M8380 5184 c-19 -2 -64 -7 -98 -10 -79 -7 -102 -27 -102 -85 0 -89
25 -96 270 -79 201 14 316 33 349 58 34 25 39 71 10 98 -19 17 -38 19 -208 20
-102 1 -202 0 -221 -2z"/>
<path d="M3012 5088 c-19 -19 -14 -76 8 -98 21 -21 52 -31 282 -85 288 -67
423 -58 378 26 -16 30 -115 71 -255 107 -230 59 -385 78 -413 50z"/>
<path d="M8186 4954 c-69 -22 -92 -39 -117 -92 -19 -39 -23 -62 -23 -168 0
-136 6 -154 59 -154 31 0 58 20 67 50 3 9 12 0 24 -25 36 -72 72 -73 108 -1
11 24 18 58 18 98 0 76 13 57 21 -30 6 -72 20 -94 56 -90 19 2 31 14 46 45 21
45 35 55 35 26 0 -23 36 -83 50 -83 26 0 42 53 49 160 6 96 10 113 31 135 33
35 60 31 102 -12 43 -46 64 -84 81 -143 12 -42 15 -45 47 -45 34 0 35 1 38 43
10 138 -75 276 -183 296 -81 16 -158 -30 -204 -123 l-29 -56 -15 36 c-18 45
-80 115 -118 135 -35 18 -80 17 -143 -2z"/>
<path d="M8637 4793 c-11 -10 -8 -117 4 -154 14 -41 43 -69 74 -69 30 0 38 33
30 119 -9 85 -25 111 -69 111 -18 0 -36 -3 -39 -7z"/>
<path d="M2794 4620 c-26 -10 -39 -49 -54 -153 -16 -126 -13 -266 8 -306 41
-82 155 -128 292 -118 93 6 144 26 168 67 22 35 38 128 48 271 7 114 -5 166
-41 175 -69 17 -101 -20 -134 -158 -29 -124 -50 -158 -95 -158 -18 0 -39 7
-46 15 -7 9 -17 80 -24 181 -11 143 -15 169 -31 180 -21 16 -59 17 -91 4z"/>
<path d="M3321 4503 c-31 -26 -40 -79 -41 -236 0 -154 8 -187 59 -230 50 -42
128 -60 240 -55 120 5 151 21 182 92 27 62 39 260 19 320 -22 67 -94 87 -131
36 -10 -14 -26 -59 -34 -100 -27 -131 -67 -189 -120 -176 -32 8 -43 47 -55
192 -11 141 -14 152 -47 165 -35 13 -48 11 -72 -8z"/>
<path d="M11327 4483 c-4 -3 -7 -47 -7 -98 l0 -91 -87 4 c-144 6 -171 -17
-188 -157 -7 -56 -15 -87 -25 -92 -8 -4 -40 -19 -71 -32 -31 -14 -105 -55
-165 -93 -59 -37 -109 -63 -111 -58 -12 32 -52 90 -76 108 -22 16 -48 22 -125
26 -53 3 -107 11 -119 18 -12 6 -32 31 -45 54 -13 23 -28 43 -35 45 -19 7
-115 -92 -111 -113 2 -11 21 -25 48 -35 l45 -17 -3 -110 c-3 -85 0 -116 12
-140 15 -30 58 -52 101 -52 31 0 49 -24 41 -56 -10 -40 -103 -126 -175 -162
-100 -50 -120 -47 -354 47 -120 49 -212 59 -328 37 -125 -24 -313 -86 -425
-141 -80 -39 -102 -56 -178 -136 -153 -163 -220 -260 -272 -395 -64 -163 -89
-259 -124 -464 -17 -96 -36 -181 -44 -188 -19 -19 -174 -70 -238 -77 -31 -4
-87 -23 -133 -46 -44 -22 -109 -44 -144 -50 -55 -10 -71 -18 -118 -61 -66 -60
-130 -89 -196 -90 -36 0 -66 -9 -114 -34 -64 -35 -138 -52 -168 -40 -14 5 -14
8 -2 26 20 29 127 113 189 148 29 17 88 42 130 55 159 50 266 130 378 282 37
50 97 120 134 156 36 37 66 75 66 85 0 46 22 208 41 304 28 143 40 165 108
199 77 39 91 58 102 135 5 38 22 92 39 126 16 33 30 68 30 79 0 11 -21 38 -47
61 -63 56 -208 160 -222 160 -16 0 -169 -78 -203 -103 -19 -14 -34 -39 -44
-75 -29 -99 -112 -154 -269 -181 -147 -26 -287 -102 -393 -216 -73 -77 -232
-312 -280 -413 -19 -40 -43 -77 -54 -83 -46 -24 -129 11 -328 140 -70 45 -152
90 -188 102 -90 30 -181 23 -282 -21 -205 -89 -186 -84 -306 -83 -137 2 -277
33 -444 100 -308 122 -502 252 -624 417 -94 126 -229 241 -314 267 -96 29
-451 19 -582 -17 -50 -14 -65 -26 -161 -126 -95 -98 -109 -109 -127 -99 -11 6
-58 53 -104 103 -136 152 -230 243 -294 284 -32 20 -99 77 -149 124 -105 101
-143 119 -199 96 -21 -9 -89 -68 -159 -138 -167 -169 -329 -297 -361 -285 -7
3 -41 51 -76 108 -35 56 -91 139 -124 183 -85 111 -102 141 -120 213 -8 34
-29 88 -46 119 -32 60 -39 104 -16 104 7 0 34 -23 59 -50 25 -28 51 -50 58
-50 6 0 26 15 45 34 28 28 34 41 34 77 0 36 -6 47 -39 79 -49 47 -119 67 -179
51 -22 -6 -91 -37 -154 -69 -78 -40 -137 -63 -190 -74 l-78 -15 0 82 c0 97 -9
109 -79 108 -56 -1 -121 -32 -221 -104 -77 -56 -100 -58 -100 -9 0 50 16 68
99 110 43 21 86 46 95 55 24 25 21 81 -6 99 -31 22 -56 20 -97 -8 -20 -14 -74
-34 -120 -45 -47 -12 -104 -32 -127 -46 -84 -49 -133 -138 -119 -213 11 -57
32 -82 71 -82 19 0 34 5 34 10 0 16 62 50 92 50 l27 0 -24 -54 c-13 -30 -31
-80 -39 -112 -21 -82 -29 -88 -117 -79 -93 9 -119 32 -119 102 0 88 -36 125
-140 145 -74 15 -90 33 -90 105 0 43 -19 73 -46 73 -28 0 -89 -31 -122 -62
-44 -43 -44 -85 1 -113 17 -11 33 -28 35 -38 2 -10 -17 -50 -42 -89 -67 -104
-61 -143 32 -208 69 -49 112 -91 112 -112 0 -25 -33 -89 -58 -112 -31 -27 -35
-63 -17 -170 8 -52 15 -129 15 -170 0 -82 1 -85 102 -194 42 -46 62 -76 73
-116 18 -61 29 -73 105 -111 90 -46 130 -76 157 -122 29 -50 58 -73 91 -73 12
0 42 -10 65 -21 45 -24 177 -149 177 -169 0 -24 -71 -80 -159 -125 -103 -53
-107 -60 -114 -184 -4 -68 -11 -95 -37 -147 -40 -77 -36 -97 26 -144 l47 -34
-49 -44 c-27 -24 -68 -55 -92 -69 -45 -27 -102 -110 -102 -148 0 -11 14 -40
30 -64 17 -24 30 -56 30 -71 0 -31 -27 -60 -56 -60 -10 0 -34 -9 -52 -20 -27
-17 -32 -25 -26 -43 19 -60 93 -127 142 -127 35 0 42 13 31 54 -20 69 45 101
168 86 49 -6 81 -6 93 0 11 6 29 37 41 70 22 60 65 110 95 110 8 0 31 -15 51
-34 59 -52 75 -57 234 -67 175 -11 222 -20 290 -55 27 -15 57 -24 67 -21 9 3
37 13 62 22 36 14 73 16 192 13 100 -2 151 -7 160 -16 23 -23 54 -13 98 34 57
61 89 73 230 86 191 18 222 3 279 -137 18 -44 45 -92 59 -108 14 -15 108 -68
207 -117 l182 -90 166 0 c150 0 171 -2 211 -22 l44 -21 33 21 c78 49 116 65
224 92 127 32 162 48 270 121 74 50 158 89 194 89 27 0 71 -38 71 -62 0 -38
-32 -88 -126 -196 -52 -59 -103 -125 -114 -148 -32 -65 -23 -204 13 -204 7 0
28 16 47 35 43 44 89 61 222 80 59 9 126 22 149 30 48 17 61 12 131 -50 75
-67 142 -92 167 -61 6 7 13 36 16 64 8 82 71 262 91 262 3 0 63 -27 132 -59
148 -69 229 -94 369 -117 81 -14 108 -15 129 -6 30 14 27 31 -17 102 -25 40
-26 46 -11 51 38 14 84 -20 244 -175 148 -145 182 -166 268 -166 70 0 78 9 62
72 -6 23 -10 44 -8 45 2 2 38 -14 80 -36 106 -54 198 -76 326 -76 94 0 111 3
163 27 48 23 58 31 55 50 -2 17 -17 26 -73 43 -82 25 -140 54 -184 90 l-31 27
58 42 c31 23 99 81 150 129 102 95 130 113 189 123 71 11 261 -16 443 -63 431
-113 448 -116 640 -117 200 -1 229 5 440 96 258 110 325 168 430 366 39 73 75
103 133 109 35 4 49 0 85 -27 27 -20 65 -35 100 -42 117 -22 152 -47 166 -121
l7 -38 79 3 c78 3 79 3 137 -38 75 -53 88 -57 213 -59 73 -1 116 -7 142 -18
48 -22 73 -21 122 2 23 11 92 26 158 35 126 16 147 24 251 94 l68 46 25 85
c14 48 37 123 51 168 17 57 23 93 19 117 -4 18 -47 96 -98 172 -50 77 -103
162 -118 189 l-27 50 -69 6 c-38 3 -98 15 -134 26 -116 37 -206 46 -402 40
-146 -4 -199 -9 -263 -27 -420 -115 -671 -149 -750 -100 -42 26 -49 44 -29 81
36 70 204 164 469 264 282 106 366 154 486 275 92 94 179 206 179 231 0 31 35
57 92 68 29 6 154 18 278 26 259 17 316 26 420 66 207 79 376 230 432 386 26
71 28 189 5 282 -20 80 -15 93 68 181 36 38 65 75 65 82 0 7 -14 40 -30 73
-30 60 -37 108 -21 133 5 8 33 22 62 31 97 32 76 81 -65 151 -80 39 -106 47
-119 33z m-29 -358 c97 -49 105 -60 65 -96 -70 -62 -164 -43 -192 38 -12 33
-12 47 -3 67 16 35 44 33 130 -9z m-9398 -106 c95 -20 147 -87 136 -175 -7
-62 -52 -210 -67 -219 -6 -4 -8 33 -7 103 3 124 -5 144 -71 162 -56 15 -196
12 -267 -7 -35 -9 -67 -13 -71 -9 -12 12 63 73 132 107 49 24 96 38 157 48 4
1 30 -4 58 -10z m-1150 -69 c46 -46 11 -130 -47 -115 -32 8 -93 51 -93 66 0
12 89 69 107 69 7 0 22 -9 33 -20z m9776 -99 c14 -22 28 -58 31 -80 7 -53 -9
-60 -89 -35 -71 21 -110 48 -101 70 7 18 102 84 120 84 7 0 24 -18 39 -39z
m644 -4 c90 -45 105 -69 105 -170 0 -73 -4 -90 -33 -149 -61 -124 -238 -251
-427 -307 -210 -62 -772 -89 -831 -40 -8 6 -14 22 -14 35 0 31 38 50 142 70
140 26 207 70 498 324 185 161 242 205 304 237 99 51 152 51 256 0z m-9325
-67 c18 -20 18 -22 -2 -63 -26 -54 -159 -230 -211 -281 -42 -40 -62 -41 -62
-1 0 17 -16 39 -46 67 -41 39 -134 157 -134 171 0 5 299 106 355 120 46 11 82
6 100 -13z m-773 -55 c130 -45 172 -86 297 -287 231 -369 378 -769 382 -1037
2 -89 10 -133 25 -138 6 -2 36 18 65 45 30 27 66 52 81 56 71 17 336 -34 445
-85 53 -25 72 -42 116 -102 60 -80 220 -238 293 -288 26 -18 74 -45 105 -60
33 -16 60 -37 64 -48 3 -11 1 -46 -4 -78 -6 -31 -11 -71 -11 -89 0 -50 -18
-60 -122 -68 -51 -3 -194 -27 -318 -54 -219 -46 -230 -47 -390 -46 -281 2
-519 49 -653 131 -84 51 -184 155 -218 227 -74 156 -8 340 161 453 101 68 125
95 124 144 -3 81 -79 164 -329 355 -219 166 -350 305 -421 444 -25 49 -28 68
-32 176 -5 145 9 204 66 279 73 96 146 115 274 70z m2075 -86 c50 -75 65 -88
157 -135 111 -58 200 -151 366 -387 117 -168 129 -175 350 -211 117 -19 195
-51 249 -101 53 -49 124 -97 271 -184 58 -34 123 -78 144 -97 46 -42 42 -50
-47 -83 -93 -34 -132 -58 -172 -103 -37 -44 -103 -166 -144 -270 -13 -32 -25
-58 -26 -58 -2 0 -25 9 -52 21 -127 54 -171 88 -226 174 -52 83 -88 125 -107
125 -25 0 -27 -5 -39 -80 -6 -35 -16 -67 -22 -71 -13 -8 -103 11 -136 30 -14
7 -23 21 -23 36 0 24 -23 55 -41 55 -28 0 -49 -22 -49 -51 0 -65 -22 -78 -170
-99 -41 -6 -85 -13 -97 -16 -22 -4 -23 -2 -23 60 0 84 -13 118 -42 114 -36 -5
-62 -62 -63 -139 -1 -76 -6 -84 -84 -142 -29 -22 -56 -48 -59 -59 -18 -70
-330 80 -387 185 -18 34 -18 38 -1 114 31 134 13 159 -68 96 l-47 -37 -34 18
c-57 31 -85 68 -94 125 -11 68 -22 79 -57 55 -65 -47 -81 -54 -116 -54 -53 0
-102 44 -100 91 3 104 -26 105 -139 4 -46 -41 -89 -75 -95 -75 -6 0 -17 6 -23
13 -15 19 -49 168 -43 191 19 70 296 291 554 439 l47 27 -2 -42 c-2 -38 1 -43
22 -46 41 -6 68 7 125 59 77 70 74 104 -11 111 l-42 3 132 120 c73 65 175 164
227 219 151 158 167 161 237 55z m-970 -41 c16 -18 50 -64 75 -103 25 -38 71
-100 103 -138 32 -37 56 -69 54 -71 -30 -29 -597 -406 -608 -404 -39 8 -91
132 -91 216 0 27 -8 59 -21 82 -14 24 -19 47 -16 62 9 35 113 198 151 236 30
30 42 35 111 43 93 10 145 34 165 77 19 40 38 40 77 0z m6208 -182 c40 -17 55
-42 55 -91 0 -75 -74 -178 -206 -286 -78 -64 -87 -84 -53 -115 53 -48 62 -110
28 -201 -47 -123 -145 -259 -290 -399 -100 -96 -145 -127 -344 -227 -167 -84
-209 -116 -286 -215 -107 -137 -157 -178 -204 -166 -30 7 -95 77 -95 103 0 10
22 65 49 123 65 137 119 273 171 433 85 263 196 453 364 621 126 125 162 144
276 144 l84 0 42 -45 c23 -25 47 -45 55 -45 15 0 145 76 154 90 3 5 -6 36 -20
70 -23 56 -24 62 -11 94 8 19 33 55 57 80 38 43 45 46 91 46 27 0 64 -6 83
-14z m1441 -32 c50 -25 60 -48 72 -171 6 -56 15 -111 22 -122 6 -12 29 -30 51
-41 22 -12 43 -28 46 -37 17 -44 -102 -169 -235 -247 -45 -26 -153 -79 -240
-118 -217 -96 -391 -180 -457 -222 -30 -20 -90 -69 -132 -109 -100 -94 -134
-117 -172 -117 -44 0 -97 24 -111 51 -34 63 52 414 150 609 136 271 392 458
731 535 86 20 224 14 275 -11z m-5231 -42 c17 -8 62 -49 100 -90 247 -267 319
-329 510 -437 135 -77 168 -105 230 -199 53 -81 103 -123 132 -112 13 5 14 16
9 57 -6 47 -5 51 11 45 50 -20 246 -38 408 -40 l180 -1 143 53 c88 32 159 52
185 52 44 0 64 -11 362 -205 66 -42 135 -84 154 -92 l34 -14 -6 -57 c-10 -108
-86 -292 -152 -369 -42 -49 -63 -53 -153 -27 -41 12 -81 15 -156 12 -120 -6
-203 -32 -434 -133 -118 -52 -164 -67 -203 -68 -63 -1 -83 14 -180 134 -210
260 -620 570 -1070 810 -178 94 -240 137 -269 183 -13 23 -26 72 -36 147 -15
107 -32 159 -54 159 -17 0 -38 -44 -45 -95 -10 -82 -15 -95 -32 -95 -24 0 -95
79 -121 133 -12 26 -29 47 -37 47 -9 0 -39 -23 -67 -50 -29 -28 -62 -53 -74
-56 -29 -7 -94 13 -101 32 -10 26 105 209 150 239 80 52 499 79 582 37z m243
-1017 c49 -21 79 -51 93 -92 16 -48 0 -61 -37 -30 -70 59 -106 77 -153 77 -49
0 -74 -12 -129 -64 -75 -69 -89 -147 -48 -260 33 -92 67 -133 140 -167 82 -38
166 -47 501 -55 335 -7 304 4 493 -178 162 -156 176 -166 223 -166 52 0 58
-17 12 -36 -30 -13 -58 -15 -135 -11 -110 7 -110 7 -129 -68 -15 -64 -41 -114
-71 -141 -58 -54 -158 -101 -158 -76 0 6 23 39 51 74 73 89 103 158 95 215
-14 105 -137 257 -250 309 -164 75 -382 67 -394 -15 -6 -40 12 -49 121 -53 93
-3 109 -7 180 -40 133 -64 231 -180 213 -253 -8 -33 -24 -32 -82 9 -122 86
-243 157 -409 241 -256 130 -276 144 -375 278 -45 61 -73 82 -91 71 -31 -19
39 -177 114 -260 54 -59 97 -87 297 -194 220 -117 260 -163 260 -297 0 -78
-28 -200 -60 -262 -41 -81 -52 -50 -43 122 5 107 3 143 -11 189 -17 58 -37 88
-61 88 -18 0 -23 -18 -34 -126 -12 -118 -40 -182 -103 -239 -36 -32 -63 -47
-101 -55 -109 -25 -120 0 -42 96 83 103 99 141 93 224 -6 81 -34 136 -153 305
-87 124 -176 298 -201 394 -23 92 -15 153 33 252 48 100 102 165 157 190 51
23 143 25 194 4z m340 -108 c151 -91 445 -367 419 -393 -3 -4 -28 2 -54 11
-40 15 -102 19 -373 25 -204 5 -340 12 -365 20 -83 26 -126 104 -110 200 7 42
30 74 46 64 5 -3 21 -28 34 -55 32 -62 64 -83 126 -83 91 0 166 78 176 182 8
86 7 85 101 29z m5078 -87 c232 -29 348 -94 439 -245 34 -56 66 -148 79 -223
5 -27 1 -38 -20 -57 -14 -13 -30 -40 -35 -60 -13 -45 -70 -110 -120 -135 -55
-29 -147 -40 -326 -40 -250 0 -342 25 -636 172 -167 83 -261 115 -477 163
-176 39 -206 51 -216 89 -19 77 64 124 281 161 153 25 199 36 410 98 126 37
266 63 400 76 118 12 133 12 221 1z m-1433 -74 c18 -7 40 -23 51 -34 18 -21
18 -24 2 -80 -23 -85 -21 -166 8 -227 27 -58 40 -70 119 -114 65 -37 65 -40
20 -119 -68 -120 -260 -267 -415 -321 -82 -28 -277 -54 -423 -55 -137 -1 -216
14 -400 77 -135 46 -175 67 -175 92 0 12 7 28 15 35 8 7 15 21 15 31 0 15 -8
19 -39 19 -53 0 -92 -16 -118 -48 -21 -27 -21 -27 -155 -26 -152 2 -233 15
-265 46 -66 61 20 206 151 256 69 26 239 56 268 46 11 -3 26 -21 34 -39 29
-70 93 -59 103 17 l6 43 110 55 c145 72 521 234 660 283 200 71 356 94 428 63z
m-4908 -60 c72 -15 317 -96 364 -120 49 -26 81 -71 110 -157 35 -103 55 -146
104 -225 20 -34 37 -71 37 -83 0 -46 -225 -181 -399 -240 -281 -95 -589 -87
-796 22 -163 87 -277 287 -262 462 14 174 148 325 313 355 72 13 446 3 529
-14z m2816 -215 c107 -37 192 -89 225 -139 30 -45 33 -85 13 -179 -12 -54 -18
-122 -17 -178 1 -99 -9 -131 -59 -176 -44 -41 -113 -77 -171 -90 -51 -10 -57
-10 -119 21 -79 39 -197 147 -213 196 -16 46 -34 54 -132 55 -127 2 -132 4
-138 73 -6 69 -20 82 -127 123 -40 15 -73 30 -73 34 0 5 249 128 410 202 168
78 293 96 401 58z m-5531 -206 c12 -36 6 -90 -13 -113 -6 -7 -19 -10 -31 -6
-22 7 -145 95 -146 105 0 3 28 22 61 42 58 34 64 35 90 22 16 -9 32 -29 39
-50z m4863 -390 c169 -44 226 -75 418 -234 63 -53 133 -111 155 -128 38 -32
38 -32 9 -22 -16 5 -101 44 -188 86 -185 89 -188 89 -167 -17 14 -74 -1 -80
-51 -19 -126 150 -178 193 -284 229 -32 11 -77 20 -100 20 -58 0 -83 20 -70
56 6 16 22 34 35 41 39 20 140 15 243 -12z"/>
<path d="M2745 3162 c-73 -46 -112 -132 -65 -147 46 -15 175 91 168 138 -4 30
-61 35 -103 9z"/>
<path d="M2905 3109 c-66 -73 -106 -189 -71 -202 20 -8 56 3 90 26 36 25 86
130 86 180 0 35 -1 37 -34 37 -27 0 -41 -8 -71 -41z"/>
<path d="M3130 3111 c-5 -11 -10 -60 -10 -110 0 -68 4 -93 16 -105 18 -19 65
-21 82 -4 27 27 2 159 -39 212 -24 31 -35 33 -49 7z"/>
<path d="M3528 3085 c-13 -29 9 -99 50 -155 33 -44 41 -50 75 -50 24 0 27 3
27 35 0 36 -23 90 -68 157 -30 46 -66 52 -84 13z"/>
<path d="M3333 3093 c-21 -8 -16 -108 9 -166 26 -62 45 -87 68 -87 49 0 56 78
15 168 -38 83 -57 100 -92 85z"/>
<path d="M4125 2756 c-41 -30 8 -130 114 -229 36 -34 58 -47 80 -47 69 0 41
78 -71 196 -85 89 -99 98 -123 80z"/>
<path d="M2858 2713 c-51 -58 -48 -228 3 -208 49 19 68 225 20 225 -4 0 -15
-8 -23 -17z"/>
<path d="M3065 2698 c-6 -25 19 -265 28 -274 12 -12 49 9 58 33 5 13 9 71 9
128 0 115 -9 135 -61 135 -21 0 -30 -6 -34 -22z"/>
<path d="M3853 2693 c-46 -18 41 -196 113 -230 40 -19 78 -8 87 26 9 36 -48
122 -121 184 -32 26 -53 31 -79 20z"/>
<path d="M3610 2671 c-29 -54 8 -185 65 -229 34 -27 47 -27 69 -3 17 18 17 23
2 73 -23 78 -89 178 -118 178 -4 0 -12 -9 -18 -19z"/>
<path d="M3366 2648 c-10 -37 -7 -178 4 -199 7 -12 21 -19 40 -19 65 0 77 91
27 190 -27 52 -61 65 -71 28z"/>
<path d="M4175 2340 c-14 -44 43 -176 87 -204 26 -16 58 18 58 64 0 86 -124
206 -145 140z"/>
<path d="M2916 2290 c-48 -58 -74 -203 -41 -230 12 -10 20 -9 40 4 50 33 84
144 65 215 -13 49 -29 52 -64 11z"/>
<path d="M1806 3398 c-37 -64 -48 -115 -29 -133 8 -8 23 -15 32 -15 39 0 101
72 101 118 0 20 -49 72 -68 72 -6 0 -22 -19 -36 -42z"/>
<path d="M1975 3417 c-46 -39 -47 -145 -3 -187 27 -25 54 -26 68 -1 17 32 13
177 -6 195 -21 21 -28 20 -59 -7z"/>
<path d="M2146 3424 c-23 -23 -19 -81 9 -141 19 -43 29 -53 48 -53 17 0 27 7
31 23 17 65 -4 156 -42 176 -26 14 -28 14 -46 -5z"/>
<path d="M4522 3038 c-43 -43 31 -204 84 -184 16 6 20 100 5 139 -19 50 -62
72 -89 45z"/>
<path d="M5217 2643 c-12 -11 -8 -53 7 -81 40 -77 127 -110 134 -52 3 30 -54
102 -99 125 -32 17 -33 17 -42 8z"/>
<path d="M6257 2473 c-12 -12 -7 -73 8 -111 32 -75 91 -107 115 -61 31 57 -82
214 -123 172z"/>
<path d="M6017 2423 c-35 -34 46 -203 97 -203 22 0 30 42 17 83 -28 85 -87
147 -114 120z"/>
<path d="M6733 2415 c-22 -58 88 -255 143 -255 21 0 24 5 24 35 0 44 -49 142
-96 195 -38 42 -61 50 -71 25z"/>
<path d="M5807 2373 c-36 -36 71 -213 129 -213 21 0 24 5 24 37 0 89 -112 218
-153 176z"/>
<path d="M6616 2194 c-3 -9 -6 -32 -6 -51 0 -30 9 -45 53 -90 38 -37 62 -53
80 -53 23 0 27 4 27 28 0 46 -100 182 -133 182 -8 0 -18 -7 -21 -16z"/>
<path d="M8890 4449 c-13 -6 -28 -15 -32 -22 -5 -7 -5 -67 -2 -133 5 -84 3
-123 -4 -128 -12 -7 -16 7 -27 82 -7 52 -40 121 -62 129 -29 11 -45 -26 -40
-92 l4 -60 -27 61 c-28 61 -69 104 -99 104 -28 0 -59 -28 -66 -60 -7 -30 -25
-42 -25 -16 0 28 -41 66 -70 66 -39 0 -58 -30 -71 -111 -11 -70 -36 -127 -62
-143 -34 -22 -66 18 -109 138 -34 97 -90 133 -133 86 -16 -17 -17 -32 -12
-107 7 -101 37 -228 70 -292 33 -64 74 -84 162 -77 178 14 240 68 254 218 l6
73 19 -60 c48 -154 91 -197 199 -203 127 -8 240 28 265 83 32 70 -11 400 -61
463 -11 14 -42 15 -77 1z"/>
<path d="M3842 4382 c-40 -40 -35 -247 8 -331 43 -85 132 -136 255 -148 60 -5
63 -5 96 29 23 23 43 58 57 100 48 147 38 218 -31 218 -41 0 -62 -15 -85 -59
-9 -19 -22 -36 -28 -38 -13 -4 -24 28 -24 74 0 42 -9 63 -26 63 -18 0 -31 -31
-40 -95 l-7 -50 -13 33 c-8 18 -19 67 -25 110 -7 42 -18 85 -27 95 -21 23 -86
23 -110 -1z"/>
<path d="M7757 4387 c-13 -9 -20 -37 -27 -107 -13 -130 -16 -140 -42 -140 -12
0 -33 -10 -46 -22 -24 -22 -25 -22 -36 -4 -30 50 -74 101 -90 104 -23 5 -51
-22 -83 -76 -23 -39 -25 -51 -21 -125 6 -102 30 -162 71 -184 61 -31 340 7
407 56 45 33 52 57 46 171 -2 58 -10 158 -17 223 l-12 117 -67 0 c-37 0 -74
-5 -83 -13z"/>
<path d="M8240 4334 c-14 -35 -12 -104 3 -134 28 -56 97 -27 97 42 0 86 -76
156 -100 92z"/>
</g>
</svg>
