<?xml version="1.0" standalone="no"?>
<!DOCTYPE svg PUBLIC "-//W3C//DTD SVG 20010904//EN"
 "http://www.w3.org/TR/2001/REC-SVG-20010904/DTD/svg10.dtd">
<svg version="1.0" xmlns="http://www.w3.org/2000/svg"
 width="792.000000pt" height="791.000000pt" viewBox="0 0 792.000000 791.000000"
 preserveAspectRatio="xMidYMid meet">
<metadata>
Created by potrace 1.16, written by Peter Selinger 2001-2019
</metadata>
<g transform="translate(0.000000,791.000000) scale(0.100000,-0.100000)"
fill="#000000" stroke="none">
<path d="M2185 5638 c-33 -6 -82 -16 -110 -23 -27 -8 -72 -19 -100 -26 -27 -7
-54 -15 -60 -18 -5 -4 -28 -13 -50 -20 -91 -29 -212 -89 -325 -161 -67 -42
-190 -138 -190 -148 0 -10 355 -360 473 -466 101 -92 124 -102 57 -26 -22 24
-40 48 -40 52 0 4 -6 8 -14 8 -14 0 -26 21 -26 47 0 8 -16 37 -36 64 -57 78
-35 81 40 7 37 -38 72 -68 77 -68 12 0 -31 83 -48 93 -8 5 -11 17 -8 26 3 10
-1 24 -10 31 -17 14 -20 40 -5 40 6 0 14 -8 17 -17 4 -10 21 -33 38 -52 79
-88 105 -97 68 -22 -24 47 -18 72 15 60 12 -5 25 -17 29 -26 8 -23 34 -53 45
-53 10 0 1 58 -12 75 -13 17 -17 63 -8 77 8 11 10 11 15 0 3 -8 18 -29 34 -47
16 -18 32 -47 35 -64 4 -17 11 -34 17 -38 10 -6 10 -5 -16 107 -31 132 -40
180 -34 187 4 3 7 -5 7 -20 0 -14 11 -39 25 -55 14 -17 25 -37 25 -45 0 -9 5
-19 11 -23 6 -3 17 -22 25 -40 8 -19 19 -34 24 -34 13 0 13 49 -1 88 -6 16 -9
47 -7 69 l3 38 22 -44 c13 -24 25 -59 29 -78 6 -30 24 -48 24 -23 0 6 5 10 11
10 8 0 10 -19 6 -57 -3 -32 -3 -47 0 -33 2 14 9 29 14 34 13 14 11 83 -3 122
-8 24 -9 39 -1 56 l11 23 12 -30 c7 -16 16 -38 21 -47 5 -10 9 -26 9 -37 0
-22 28 -91 37 -91 3 0 3 68 -1 150 -4 89 -3 150 2 150 9 0 17 -51 31 -195 l7
-70 7 55 c5 30 7 163 5 295 l-3 240 -80 1 c-44 1 -107 -3 -140 -8z"/>
<path d="M2534 5635 c-11 -28 14 -645 26 -645 4 0 7 8 7 18 -1 9 0 32 1 51 2
33 3 34 17 15 13 -18 14 -16 15 28 0 26 4 49 9 52 5 4 13 41 17 84 9 97 22 72
23 -44 1 -58 5 -85 15 -93 12 -10 18 -1 37 61 12 40 28 82 36 93 13 18 14 15
9 -35 -7 -77 -14 -200 -9 -174 2 12 12 24 22 27 12 3 25 25 36 61 10 31 23 56
31 56 7 0 17 12 23 28 9 22 10 16 5 -32 -3 -33 -10 -70 -15 -84 -12 -30 -12
-72 0 -72 5 0 22 26 37 58 14 31 35 65 46 76 19 18 19 17 12 -54 -6 -60 -4
-72 7 -68 8 2 21 19 29 36 9 18 25 39 37 47 22 15 22 15 16 -37 -3 -29 -12
-62 -19 -73 -20 -28 -17 -37 9 -33 14 2 23 11 25 25 2 12 15 32 29 45 14 13
34 31 44 41 10 9 21 17 24 17 5 0 -17 -55 -37 -94 -6 -11 -11 -30 -13 -42 -1
-13 -13 -38 -27 -56 -41 -56 -43 -65 -4 -28 21 19 49 54 63 77 13 23 33 45 43
48 10 3 20 15 23 25 3 11 10 20 16 20 18 0 12 -43 -9 -70 -11 -14 -20 -32 -20
-40 0 -9 -13 -31 -30 -50 -30 -35 -38 -60 -20 -60 5 0 16 12 24 28 24 47 146
153 146 127 0 -10 -43 -85 -51 -91 -11 -6 -12 -34 -1 -34 19 1 362 328 362
345 0 18 -100 107 -185 164 -87 59 -263 146 -350 172 -22 6 -49 15 -60 20 -58
23 -299 69 -397 76 -58 5 -69 3 -74 -12z"/>
<path d="M1204 5087 c-78 -84 -95 -106 -161 -207 -61 -95 -143 -255 -143 -282
0 -8 -4 -18 -8 -24 -18 -20 -82 -259 -82 -305 0 -21 -4 -41 -10 -44 -5 -3 -10
-37 -10 -76 l0 -69 188 0 c103 1 250 6 327 11 77 6 166 10 198 9 34 -1 57 3
57 9 0 6 -17 11 -37 11 -55 1 -211 33 -215 45 -2 6 40 12 107 15 94 4 103 6
63 12 -26 4 -56 12 -65 17 -10 5 -33 15 -50 21 -61 23 -38 33 58 27 100 -6
103 -1 19 33 -73 29 -83 34 -88 48 -5 15 59 16 111 1 52 -14 66 -2 31 27 -16
13 -36 23 -44 24 -19 0 -60 28 -60 41 0 12 75 12 98 0 67 -34 90 -43 103 -39
9 4 0 12 -24 22 -21 9 -60 32 -86 51 -27 19 -53 35 -59 35 -6 0 -16 9 -22 20
-6 11 -8 20 -5 20 17 0 104 -24 132 -36 17 -8 39 -14 49 -14 15 0 14 3 -6 25
-13 14 -28 25 -34 25 -5 0 -31 18 -57 40 -26 22 -60 45 -75 50 -15 6 -24 13
-21 16 3 4 26 -3 50 -15 24 -11 48 -21 53 -21 6 0 35 -13 65 -29 62 -33 109
-46 109 -31 0 5 -4 10 -9 10 -4 0 -44 34 -87 76 -67 65 -75 75 -50 70 15 -4
41 -16 56 -28 16 -11 33 -17 40 -13 7 4 15 4 19 -1 9 -13 72 -59 101 -73 14
-7 -12 23 -57 67 -46 43 -83 84 -83 91 0 6 -8 11 -17 12 -21 0 -72 59 -51 59
7 0 27 -14 45 -30 18 -17 39 -30 47 -30 8 0 16 -6 19 -12 2 -7 7 -11 10 -8 5
4 -330 348 -384 395 -3 3 -28 -19 -55 -48z"/>
<path d="M3540 4970 c-85 -82 -156 -150 -158 -150 -13 0 -31 -31 -26 -44 5
-12 2 -15 -10 -10 -10 4 -16 1 -16 -9 0 -9 -9 -18 -19 -22 -27 -8 -35 -35 -11
-35 11 0 20 4 20 8 0 13 96 82 114 82 9 0 24 9 33 20 21 24 33 26 33 5 0 -8
-9 -19 -20 -25 -11 -6 -20 -17 -20 -25 0 -8 -7 -15 -15 -15 -8 0 -15 -9 -15
-20 0 -14 -7 -20 -22 -20 -20 0 -21 -1 -6 -16 14 -14 19 -14 57 10 22 14 47
26 56 26 19 0 20 -26 0 -34 -18 -7 -20 -23 -2 -29 6 -2 0 -2 -14 0 -23 3 -26
0 -26 -27 0 -35 25 -41 53 -12 10 9 27 17 38 18 12 0 31 4 44 8 17 6 22 3 22
-9 0 -9 -13 -21 -30 -26 -16 -6 -32 -18 -35 -28 -3 -9 -34 -32 -70 -50 -36
-19 -65 -38 -65 -42 0 -17 37 -9 55 11 10 11 24 20 30 20 7 0 40 9 74 20 61
19 95 18 88 -4 -2 -6 -17 -17 -33 -25 -16 -8 -33 -20 -39 -27 -5 -7 -29 -18
-52 -24 -52 -13 -65 -30 -24 -30 17 0 31 5 31 10 0 6 28 10 65 10 53 0 63 -3
59 -15 -4 -8 -11 -15 -17 -15 -6 0 -18 -6 -26 -14 -9 -8 -30 -22 -46 -30 -30
-16 -29 -16 48 -16 l78 0 -21 -30 c-12 -16 -28 -30 -35 -30 -8 0 -26 -5 -41
-10 -20 -8 -24 -14 -16 -22 9 -9 25 -9 64 0 44 11 54 10 67 -2 13 -13 11 -16
-13 -26 -15 -5 -31 -10 -36 -10 -5 0 -13 -6 -17 -13 -4 -7 -19 -18 -33 -24
l-25 -12 28 0 c15 -1 27 4 27 10 0 12 90 6 112 -7 11 -7 -55 -44 -79 -44 -7 0
-13 -4 -13 -10 0 -5 17 -10 38 -11 33 0 34 -1 14 -10 -36 -14 -18 -25 45 -28
32 -1 72 -3 90 -5 18 -1 36 0 42 3 5 3 17 42 26 85 8 44 18 83 21 87 2 4 4 75
5 158 0 212 -34 342 -139 521 -45 78 -120 180 -131 180 -3 0 -76 -67 -161
-150z"/>
<path d="M6903 4983 c-10 -4 -13 -99 -13 -432 0 -235 2 -430 4 -432 2 -2 50
-3 105 -1 l101 3 0 429 c0 400 -1 429 -17 434 -21 6 -162 5 -180 -1z"/>
<path d="M6209 4973 c0 -4 -1 -198 -2 -430 l-2 -423 213 0 c139 0 212 4 212
10 0 6 8 14 18 17 9 4 43 27 75 51 l58 45 -3 111 -3 111 -67 40 c-38 22 -68
45 -68 51 0 13 56 58 94 75 26 12 26 13 26 129 l0 117 -72 49 -73 49 -130 3
c-71 2 -156 -1 -187 -6 -33 -5 -63 -5 -72 0 -9 5 -16 5 -17 1z m55 -65 c8 -49
25 -489 26 -655 l0 -113 -29 0 -28 0 -5 98 c-3 53 -3 210 -1 347 2 138 3 276
3 308 0 42 4 57 14 57 8 0 16 -16 20 -42z m308 -85 c2 -5 2 -49 0 -100 l-3
-91 -37 -4 c-21 -2 -61 -2 -90 0 l-52 4 0 99 0 99 89 0 c50 0 91 -3 93 -7z
m-237 -239 c7 -3 11 -14 8 -25 -4 -13 2 -21 18 -28 25 -10 24 -11 -28 -27 -21
-6 -15 -21 10 -27 21 -6 22 -10 19 -103 -3 -76 -1 -95 10 -92 9 3 13 31 14 98
1 66 6 95 15 101 16 10 129 12 153 3 13 -5 16 -24 16 -109 0 -85 -3 -104 -16
-109 -9 -3 -53 -6 -99 -6 -61 0 -86 4 -95 15 -7 8 -16 15 -21 15 -5 0 -9 -7
-9 -15 0 -8 5 -15 11 -15 8 0 7 -5 -1 -15 -11 -13 -10 -18 8 -31 22 -15 30
-44 12 -44 -5 0 -10 -7 -10 -15 0 -8 -9 -15 -19 -15 -16 0 -20 10 -26 78 -3
42 -4 149 -1 237 7 190 8 198 13 162 3 -16 10 -30 18 -33z"/>
<path d="M790 3911 c0 -28 5 -53 10 -56 6 -3 10 -25 10 -49 0 -24 4 -56 9 -72
5 -16 17 -56 26 -89 42 -144 70 -218 127 -330 79 -155 244 -380 274 -373 22 5
377 362 364 366 -6 2 -22 -5 -34 -17 -12 -12 -27 -21 -33 -21 -5 0 -18 -9 -28
-20 -29 -32 -37 -23 -12 13 45 65 91 117 110 123 22 7 93 74 79 74 -5 0 -15
-6 -21 -13 -6 -8 -29 -20 -51 -27 -22 -7 -40 -19 -40 -27 0 -7 -6 -13 -13 -13
-7 0 -32 -9 -55 -20 -22 -11 -46 -20 -52 -20 -21 0 -9 30 20 47 17 9 30 23 30
30 0 7 5 13 12 13 13 0 68 49 68 61 0 4 -12 1 -27 -7 -16 -7 -35 -14 -44 -14
-9 0 -33 -7 -54 -16 -68 -28 -74 -9 -14 47 30 27 66 55 82 60 28 11 37 29 14
29 -7 0 -22 -7 -33 -15 -10 -8 -29 -15 -40 -15 -12 0 -27 -7 -34 -16 -14 -16
-66 -16 -64 1 1 6 11 15 23 21 12 6 27 18 34 26 13 17 51 38 114 64 24 10 41
19 39 22 -4 4 -81 -14 -111 -27 -11 -5 -45 -13 -75 -19 -30 -5 -59 -12 -65
-14 -5 -1 -11 2 -13 7 -2 6 5 12 15 14 10 2 20 6 23 10 3 4 18 15 34 25 l29
19 -24 14 c-23 13 -21 14 24 10 26 -3 50 -1 53 4 3 5 17 9 32 9 23 1 25 2 9
11 -9 5 -23 6 -30 2 -6 -4 -32 -9 -57 -10 -25 -1 -62 -5 -82 -8 -79 -15 -28
22 70 51 7 2 10 8 7 14 -3 5 3 10 14 10 11 0 22 4 25 9 9 13 -60 21 -96 10
-44 -12 -131 -12 -123 1 3 6 21 10 40 10 19 0 36 4 39 9 4 5 24 12 46 16 25 4
40 12 40 21 0 10 14 14 48 15 42 0 44 1 22 10 -15 6 -74 8 -145 5 -74 -3 -110
-2 -95 3 14 5 39 9 57 10 17 1 35 6 38 11 3 6 18 11 33 12 74 4 -179 16 -365
17 l-213 1 0 -49z"/>
<path d="M3998 3943 c-9 -10 -26 -37 -38 -61 -50 -96 -105 -170 -204 -277 -43
-45 -62 -73 -56 -79 17 -17 11 -36 -11 -36 -11 0 -18 4 -14 9 13 23 -19 21
-42 -2 l-25 -25 21 -21 c36 -36 26 -49 -26 -35 -13 4 -23 13 -23 20 0 17 -5
17 -31 3 -19 -10 -20 -11 -3 -23 12 -9 14 -15 5 -20 -15 -10 -4 -26 19 -26 14
0 30 -18 30 -34 0 -1 -13 -17 -29 -35 -24 -27 -39 -34 -92 -41 -34 -5 -66 -15
-70 -22 -6 -10 -11 -10 -20 -1 -13 13 -4 33 17 33 19 0 18 19 -2 27 -9 3 -24
-4 -36 -17 l-21 -22 32 -31 c20 -21 31 -26 31 -17 0 8 14 21 31 29 27 12 32
11 43 -4 13 -18 10 -75 -4 -75 -4 0 -13 6 -19 14 -9 10 -8 16 4 26 13 10 13
15 3 21 -13 8 -48 -16 -48 -34 0 -6 134 -145 298 -310 163 -164 303 -305 310
-313 18 -19 23 -18 63 9 19 12 63 40 99 62 83 50 304 213 397 293 237 204 424
443 540 691 30 64 59 124 64 133 5 10 9 26 9 36 0 10 4 22 9 28 7 8 41 120 41
137 0 4 -278 7 -618 7 -577 0 -620 -1 -634 -17z"/>
<path d="M6530 3440 l0 -430 85 0 86 0 -2 250 c-1 138 1 253 3 255 14 15 54
-71 103 -220 9 -27 23 -63 30 -80 7 -16 24 -59 36 -95 41 -115 39 -113 116
-117 37 -2 78 -1 91 2 l22 5 0 430 0 430 -90 0 -90 0 -2 -227 c-2 -143 -7
-228 -13 -230 -6 -2 -23 32 -38 74 -28 78 -35 95 -55 143 -5 14 -20 52 -32 85
-12 33 -26 69 -31 80 -5 11 -13 32 -19 48 -9 27 -10 27 -104 27 l-95 0 -1
-430z"/>
<path d="M6310 3788 c0 -8 5 -19 12 -26 9 -9 8 -12 -6 -12 -15 0 -17 -6 -11
-38 5 -29 2 -43 -13 -60 -11 -13 -18 -31 -15 -41 3 -11 -2 -30 -10 -42 -8 -13
-18 -39 -22 -57 -9 -45 -29 -29 -20 17 3 20 5 56 4 81 -2 25 -3 64 -3 88 -1
34 -5 42 -19 42 -11 0 -15 -4 -11 -12 4 -6 9 -70 10 -142 4 -156 9 -195 23
-209 14 -14 14 -37 0 -37 -7 0 -17 7 -24 17 -11 15 -14 14 -33 -5 -16 -16 -29
-20 -56 -15 -24 4 -36 2 -36 -6 0 -10 15 -12 115 -15 38 -1 70 14 130 59 11 9
33 25 49 37 l28 21 -4 160 -5 160 -41 24 c-31 19 -42 21 -42 11z"/>
<path d="M1761 3237 c-6 -8 -7 -17 -3 -22 4 -4 1 -6 -7 -3 -8 2 -23 -3 -32
-11 -10 -9 -24 -20 -31 -26 -58 -43 -338 -310 -338 -322 0 -24 206 -186 339
-266 123 -74 413 -207 450 -207 10 0 21 -4 27 -8 5 -5 27 -14 49 -20 22 -6 69
-21 104 -32 35 -11 70 -20 78 -20 10 0 13 46 12 238 -1 221 -14 508 -17 397
-3 -71 -24 -205 -33 -205 -4 0 -11 36 -15 80 -7 80 -17 100 -28 57 -3 -13 -17
-40 -31 -61 -14 -20 -25 -46 -25 -56 0 -11 -5 -20 -11 -20 -8 0 -9 25 -4 85 6
76 5 85 -10 85 -18 0 -17 10 0 68 4 13 3 22 -3 22 -5 0 -12 -12 -15 -27 -20
-99 -27 -118 -48 -134 -21 -16 -25 -16 -33 -2 -9 17 0 107 15 135 5 10 6 18 2
18 -7 -1 -44 -54 -80 -114 -7 -12 -18 -21 -25 -21 -16 0 -14 83 2 99 5 5 10
26 10 46 l-1 35 -19 -24 c-11 -13 -20 -28 -20 -35 0 -6 -14 -27 -30 -46 -23
-28 -31 -32 -41 -23 -10 10 -9 21 6 52 17 39 15 71 -4 71 -5 0 -24 -18 -41
-40 -59 -75 -70 -10 -15 94 38 74 39 76 26 76 -5 0 -29 -28 -54 -62 -52 -72
-117 -138 -117 -118 0 13 50 120 60 130 3 3 13 17 23 32 22 35 23 62 1 54 -9
-3 -18 -6 -20 -6 -2 0 -4 -6 -4 -13 0 -17 -102 -127 -117 -127 -18 0 -16 29 1
36 8 3 17 13 20 22 5 17 26 53 36 62 21 20 42 64 31 68 -6 2 -9 8 -5 13 8 14
-2 11 -15 -4z"/>
<path d="M3200 3110 c0 -13 5 -18 15 -14 10 4 15 0 15 -15 0 -12 5 -21 11 -21
5 0 8 -4 5 -9 -3 -4 1 -17 9 -27 23 -31 18 -44 -18 -44 -39 0 -77 34 -77 68 0
12 -2 22 -4 22 -2 0 -11 3 -20 6 -20 8 -21 -19 -1 -36 13 -11 45 -102 45 -129
0 -22 -32 -10 -61 24 -17 19 -34 35 -38 35 -5 0 -7 -20 -7 -44 1 -57 -18 -80
-42 -50 -9 12 -25 24 -35 28 -17 5 -18 1 -12 -52 l7 -57 -41 40 c-29 28 -41
47 -41 68 0 18 -4 27 -12 24 -9 -2 -12 -23 -10 -70 4 -73 -3 -81 -46 -51 -14
10 -22 25 -22 45 0 17 -8 42 -19 55 -21 26 -36 22 -19 -6 9 -13 7 -27 -5 -59
-10 -23 -17 -57 -17 -76 0 -19 -4 -35 -10 -35 -5 0 -10 5 -10 11 0 18 -32 82
-51 104 -10 11 -19 38 -22 60 -2 22 -4 -8 -5 -67 -2 -80 -5 -108 -15 -108 -13
0 -47 115 -47 159 0 19 -3 21 -14 11 -8 -6 -12 -19 -9 -27 4 -11 2 -14 -5 -9
-7 4 -12 5 -12 3 0 -2 -4 -26 -9 -53 -5 -27 -12 -160 -16 -296 l-7 -248 39 0
c21 0 44 -5 49 -10 13 -13 504 -7 619 8 124 16 246 44 405 94 75 23 243 102
259 121 8 10 -46 70 -241 263 -138 137 -258 257 -267 267 -8 9 -20 17 -25 17
-6 0 -20 12 -33 28 -17 20 -22 23 -23 10 0 -9 7 -23 15 -32 20 -20 19 -38 -2
-34 -10 2 -19 13 -21 25 -2 12 -12 25 -23 28 -10 4 -19 13 -19 21 0 8 -7 17
-15 20 -8 4 -15 12 -15 20 0 8 -7 14 -15 14 -8 0 -15 -9 -15 -20z"/>
</g>
</svg>
