<?xml version="1.0" standalone="no"?>
<!DOCTYPE svg PUBLIC "-//W3C//DTD SVG 20010904//EN"
 "http://www.w3.org/TR/2001/REC-SVG-20010904/DTD/svg10.dtd">
<svg version="1.0" xmlns="http://www.w3.org/2000/svg"
 width="245.000000pt" height="245.000000pt" viewBox="0 0 245.000000 245.000000"
 preserveAspectRatio="xMidYMid meet">
<metadata>
Created by potrace 1.16, written by Peter Selinger 2001-2019
</metadata>
<g transform="translate(0.000000,245.000000) scale(0.100000,-0.100000)"
fill="#000000" stroke="none">
<path d="M1040 2190 c0 -5 9 -10 20 -10 51 0 104 -46 144 -126 29 -58 89 -235
82 -241 -3 -3 -14 27 -26 67 -28 94 -37 85 -11 -11 20 -72 81 -360 81 -379 0
-5 -57 -53 -127 -106 -71 -53 -127 -100 -125 -106 1 -5 -2 -7 -7 -3 -6 3 -58
-30 -117 -74 -59 -44 -136 -96 -170 -116 -35 -21 -61 -42 -57 -48 3 -6 1 -7
-6 -3 -6 4 -39 -4 -74 -17 -88 -35 -137 -41 -180 -24 -39 17 -57 42 -57 80 0
14 -7 27 -15 31 -51 19 35 343 142 536 66 119 191 296 265 376 16 17 28 37 26
45 -2 8 3 13 11 11 7 -2 23 6 35 17 12 11 46 34 76 50 30 17 48 31 40 31 -8 0
-30 -9 -48 -20 -40 -25 -49 -25 -31 -2 13 15 12 16 -4 3 -9 -8 -15 -16 -12
-19 6 -7 -35 -52 -47 -52 -5 0 -6 6 -2 13 4 6 -19 -13 -50 -43 -31 -30 -56
-56 -56 -59 0 -2 11 6 25 19 14 13 25 19 25 13 0 -13 -45 -55 -52 -48 -15 16
-170 -209 -160 -233 3 -10 1 -13 -7 -8 -6 4 -11 4 -10 -1 3 -19 -2 -34 -10
-29 -11 7 -111 -188 -144 -280 -14 -40 -23 -82 -20 -95 4 -20 3 -21 -7 -9 -10
13 -11 12 -6 -3 3 -11 3 -24 -1 -30 -12 -20 -16 -50 -15 -124 1 -82 21 -130
73 -178 18 -16 29 -24 25 -17 -7 11 -4 12 13 3 11 -7 21 -14 21 -17 0 -3 -5
-2 -12 2 -7 5 -8 3 -4 -5 5 -7 14 -10 22 -7 7 3 16 1 19 -4 9 -14 105 -13 105
1 0 6 9 9 20 6 11 -3 18 -2 15 3 -6 10 43 23 57 14 6 -4 8 -3 5 3 -6 10 90 60
106 55 5 -1 6 1 3 6 -3 5 12 17 34 27 21 10 48 26 60 37 11 10 20 16 20 12 0
-3 13 8 30 26 17 19 34 29 41 24 7 -4 9 -3 6 3 -8 13 16 35 34 31 7 -2 13 3
14 11 0 8 6 16 14 19 9 3 11 0 6 -8 -7 -12 87 56 198 142 27 21 52 38 55 38 4
0 17 -39 30 -87 30 -117 70 -200 124 -257 42 -44 47 -46 99 -46 55 0 115 22
168 60 l28 19 23 -25 c13 -13 40 -29 60 -35 62 -19 117 23 156 117 24 57 10
51 -20 -9 -27 -57 -61 -83 -92 -73 -30 11 -114 89 -87 81 17 -5 21 -3 18 7 -3
8 17 30 47 54 107 82 147 97 162 58 5 -13 36 -21 36 -8 0 20 -22 43 -38 37
-14 -4 -13 -2 3 10 11 9 16 17 12 17 -19 0 -118 -57 -181 -106 l-68 -53 -57
57 c-31 31 -74 79 -96 106 -46 57 -162 156 -183 156 -8 0 3 -12 24 -26 21 -14
52 -38 68 -53 27 -25 198 -219 261 -296 17 -21 44 -43 60 -51 25 -11 27 -13 8
-14 -32 0 -99 61 -156 143 -28 40 -85 106 -126 148 -66 66 -85 79 -145 99 -56
18 -70 20 -77 9 -5 -8 -9 -9 -9 -4 0 6 -5 3 -10 -5 -8 -12 -13 -13 -29 -3 -18
11 -30 5 -108 -54 -48 -37 -119 -92 -158 -123 -152 -122 -338 -240 -420 -265
-28 -8 -70 -14 -95 -14 -44 1 -43 1 21 14 37 7 86 23 110 35 74 37 160 92 155
98 -7 6 68 63 87 66 23 4 58 27 52 35 -4 8 17 23 36 25 4 1 55 37 115 82 60
45 127 93 149 108 22 14 36 26 32 26 -4 0 1 10 12 22 16 17 23 19 34 9 18 -14
79 -11 74 4 -2 5 -20 11 -40 13 -33 3 -37 6 -43 40 -69 411 -148 610 -257 651
-36 14 -67 14 -67 1z m445 -804 c73 -35 115 -71 200 -169 71 -83 101 -126 93
-131 -51 -33 -61 -37 -68 -26 -5 8 -16 9 -30 5 -21 -7 -21 -8 -6 -17 23 -13
13 -25 -28 -32 -38 -7 -116 21 -155 57 -32 30 -88 145 -107 218 -20 77 -13 86
10 13 25 -78 29 -63 6 20 -11 38 -17 73 -14 77 9 15 47 10 99 -15z"/>
<path d="M961 2093 c-52 -26 -130 -102 -218 -215 -157 -200 -282 -447 -327
-645 -24 -109 -18 -131 9 -28 37 144 81 251 157 385 167 294 282 435 392 486
31 14 56 27 56 30 0 9 -37 2 -69 -13z"/>
</g>
</svg>
